<svg width="21" height="22" viewBox="0 0 21 22" fill="none" xmlns="http://www.w3.org/2000/svg">
<path fill-rule="evenodd" clip-rule="evenodd" d="M10.504 1.81775C15.5773 1.81775 19.6916 5.93207 19.6916 11.0053C19.6916 16.0786 15.5773 20.1929 10.504 20.1929C5.43073 20.1929 1.31641 16.0786 1.31641 11.0053C1.31641 5.93207 5.43073 1.81775 10.504 1.81775ZM8.59609 13.9895L6.34674 11.7383C5.96353 11.3549 5.96345 10.7296 6.34674 10.3463C6.73011 9.96297 7.35817 9.96537 7.73875 10.3463L9.32453 11.9333L13.2694 7.9884C13.6528 7.60503 14.2781 7.60503 14.6614 7.9884C15.0448 8.37169 15.0442 8.99758 14.6614 9.38041L10.0194 14.0224C9.63659 14.4052 9.01069 14.4058 8.6274 14.0224C8.61663 14.0116 8.60624 14.0007 8.59609 13.9895Z" fill="#BD6717"/>
</svg>
