<?xml version="1.0" standalone="no"?>
<!DOCTYPE svg PUBLIC "-//W3C//DTD SVG 1.1//EN" "http://www.w3.org/Graphics/SVG/1.1/DTD/svg11.dtd" >
<svg xmlns="http://www.w3.org/2000/svg">
<metadata>Generated by IcoMoon</metadata>
<defs>
<font id="icomoon" horiz-adv-x="1024">
<font-face units-per-em="1024" ascent="960" descent="-64" />
<missing-glyph horiz-adv-x="1024" />
<glyph unicode="&#x20;" horiz-adv-x="512" d="" />
<glyph unicode="&#xe900;" glyph-name="shop" d="M353.584 960h-235.168c-65.294 0-118.416-53.122-118.416-118.416v-235.168c0-65.294 53.122-118.416 118.416-118.416h235.168c65.294 0 118.416 53.122 118.416 118.416v235.168c0 65.294-53.122 118.416-118.416 118.416zM392 606.416c0-21.182-17.234-38.416-38.416-38.416h-235.168c-21.182 0-38.416 17.234-38.416 38.416v235.168c0 21.182 17.234 38.416 38.416 38.416h235.168c21.182 0 38.416-17.234 38.416-38.416v-235.168zM903.997 960h-231.997c-66.166 0-120.003-53.832-120.003-120v-232c0-66.168 53.837-120 120.003-120h231.997c66.171 0 120.003 53.832 120.003 120v232c0 66.168-53.832 120-120.003 120zM944 608c0-22.056-17.946-40-40.003-40h-231.997c-22.057 0-39.997 17.944-39.997 40v232c0 22.056 17.94 40 39.997 40h231.997c22.057 0 40.003-17.944 40.003-40v-232zM353.584 408.003h-235.168c-65.294 0-118.416-53.125-118.416-118.42v-235.167c0-65.295 53.122-118.415 118.416-118.415h235.168c65.294 0 118.416 53.12 118.416 118.415v235.167c0 65.295-53.122 118.42-118.416 118.42zM392 54.415c0-21.181-17.234-38.415-38.416-38.415h-235.168c-21.182 0-38.416 17.234-38.416 38.415v235.167c0 21.181 17.234 38.415 38.416 38.415h235.168c21.182 0 38.416-17.234 38.416-38.415v-235.167zM903.997 408.003h-231.997c-66.166 0-120.003-53.837-120.003-120.003v-231.997c0-66.171 53.837-120.003 120.003-120.003h231.997c66.171 0 120.003 53.832 120.003 120.003v231.997c0 66.166-53.832 120.003-120.003 120.003zM944 56.003c0-22.057-17.946-40.003-40.003-40.003h-231.997c-22.057 0-39.997 17.946-39.997 40.003v231.997c0 22.057 17.94 39.997 39.997 39.997h231.997c22.057 0 40.003-17.94 40.003-39.997v-231.997z" />
<glyph unicode="&#xe901;" glyph-name="menu1" horiz-adv-x="896" d="M0 878.080c0 45.243 34.508 81.92 77.075 81.92s77.076-36.677 77.076-81.92v-860.16c0-45.248-34.508-81.92-77.076-81.92s-77.075 36.672-77.075 81.92v860.16zM370.925 878.080c0 45.243 34.508 81.92 77.075 81.92s77.075-36.677 77.075-81.92v-860.16c0-45.248-34.506-81.92-77.075-81.92s-77.075 36.672-77.075 81.92v860.16zM818.925 960c-42.566 0-77.075-36.677-77.075-81.92v-860.16c0-45.248 34.509-81.92 77.075-81.92s77.075 36.672 77.075 81.92v860.16c0 45.243-34.509 81.92-77.075 81.92z" />
<glyph unicode="&#xe902;" glyph-name="fill-check-circle" d="M512.181 895.75c-247.382 0-448.003-200.621-448.003-448.003 0-247.379 200.621-448.003 448.003-448.003 247.385 0 448.001 200.624 448.001 448.003 0 247.382-200.616 448.003-448.001 448.003zM419.148 302.233l-109.682 109.773c-18.686 18.697-18.69 49.186 0 67.88 18.694 18.689 49.319 18.572 67.877 0l77.325-77.386 192.359 192.358c18.694 18.694 49.187 18.694 67.877 0 18.698-18.689 18.668-49.209 0-67.877l-226.352-226.352c-18.667-18.667-49.186-18.693-67.877 0-0.525 0.525-1.032 1.059-1.526 1.603z" />
<glyph unicode="&#xe903;" glyph-name="arrow1-left" horiz-adv-x="1195" d="M448 0l104.533 108.267-265.067 265.067h907.2v149.333h-907.2l265.067 265.067-104.533 108.267-448-448 448-448z" />
<glyph unicode="&#xe904;" glyph-name="arrow-right1" horiz-adv-x="1408" d="M1332.134 489.475l-410.669 410.666c-11.066 10.687-25.882 16.6-41.267 16.466-15.379-0.134-30.093-6.304-40.973-17.181-10.874-10.877-17.043-25.591-17.178-40.974s5.779-30.202 16.467-41.266l310.522-310.523h-1031.714c-15.559 0-30.481-6.181-41.484-17.183s-17.183-25.924-17.183-41.484c0-15.559 6.181-30.481 17.183-41.484s25.924-17.183 41.484-17.183h1031.714l-310.522-310.521c-5.606-5.414-10.074-11.885-13.152-19.046-3.072-7.155-4.691-14.854-4.762-22.643-0.064-7.789 1.421-15.514 4.371-22.726 2.95-7.206 7.302-13.76 12.813-19.27 5.51-5.504 12.058-9.862 19.27-12.813 7.206-2.95 14.931-4.435 22.72-4.365 7.795 0.064 15.488 1.683 22.65 4.762 7.155 3.072 13.632 7.546 19.040 13.146l410.669 410.667c10.995 11.002 17.178 25.921 17.178 41.477s-6.182 30.476-17.178 41.478z" />
<glyph unicode="&#xe905;" glyph-name="arrow-top-left" d="M938.667 960c-25.6 0-42.667-8.533-59.733-25.6l-853.333-853.333c-34.133-34.133-34.133-85.333 0-119.467s85.333-34.133 119.467 0l853.333 853.333c34.133 34.133 34.133 85.333 0 119.467-17.067 17.067-34.133 25.6-59.733 25.6zM938.667 960h-768c-51.2 0-85.333-34.133-85.333-85.333s34.133-85.333 85.333-85.333h682.667v-682.667c0-51.2 34.133-85.333 85.333-85.333s85.333 34.133 85.333 85.333v768c0 51.2-34.133 85.333-85.333 85.333z" />
<glyph unicode="&#xe906;" glyph-name="arrow-down1" horiz-adv-x="1707" d="M0 789.333l853.333-853.333 853.333 853.333-151.467 151.467-701.867-701.867-701.867 701.866-151.467-151.466z" />
<glyph unicode="&#xe907;" glyph-name="uniE906" d="M869.029 338.534c-1.155 17.596-20.042 28.223-35.675 20.070-13.596-7.094-56.235-25.498-89.828-25.498-25.839 0-43.042 8.545-43.042 50.256 0 114.338 153.554 205.677 16.634 376.833-15.707 19.626-47.366 5.389-43.162-19.354 0.085-0.516 8.067-52.306-16.139-80.978-11.361-13.446-28.57-19.984-52.611-19.984-83.277 0-77.479 209.74 27.529 274.848 23.353 14.474 8.414 50.67-18.267 44.59-6.724-1.52-165.795-39.216-250.889-205.71-63.186-123.62-28.964-208.884-3.976-271.144 22.332-55.638 32.522-81.032-17.494-115.662-18.838-13.045-33.42-11.691-33.42-11.691-46.782 0-91.096 68.766-104.21 95.233-10.652 21.642-43.074 16.252-46.15-7.676-1.32-10.288-30.866-253.587 98.254-400.354 71.14-80.856 170.114-109.619 278.594-106.018 100.283 3.362 180.303 37.279 237.846 100.807 106.701 117.806 96.489 293.996 96.006 301.431z" />
<glyph unicode="&#xe908;" glyph-name="arrow-up1" horiz-adv-x="1609" d="M1609.143 155.429l-804.571 804.571-804.571-804.571 142.811-142.811 661.76 661.76 661.767-661.76 142.804 142.811z" />
<glyph unicode="&#xe909;" glyph-name="home" d="M1024 369.556l-512 397.426-512-397.428v162.038l512 397.426 512-397.428zM896 384v-384h-256v256h-256v-256h-256v384l384 288z" />
<glyph unicode="&#xe90a;" glyph-name="home2" d="M512 928l-512-512 96-96 96 96v-416h256v192h128v-192h256v416l96-96 96 96-512 512zM512 512c-35.346 0-64 28.654-64 64s28.654 64 64 64c35.346 0 64-28.654 64-64s-28.654-64-64-64z" />
<glyph unicode="&#xe90b;" glyph-name="home3" d="M1024 352l-192 192v288h-128v-160l-192 192-512-512v-32h128v-320h320v192h128v-192h320v320h128z" />
<glyph unicode="&#xe90c;" glyph-name="office" d="M0-64h512v1024h-512v-1024zM320 832h128v-128h-128v128zM320 576h128v-128h-128v128zM320 320h128v-128h-128v128zM64 832h128v-128h-128v128zM64 576h128v-128h-128v128zM64 320h128v-128h-128v128zM576 640h448v-64h-448zM576-64h128v256h192v-256h128v576h-448z" />
<glyph unicode="&#xe90d;" glyph-name="newspaper" d="M896 704v128h-896v-704c0-35.346 28.654-64 64-64h864c53.022 0 96 42.978 96 96v544h-128zM832 128h-768v640h768v-640zM128 640h640v-64h-640zM512 512h256v-64h-256zM512 384h256v-64h-256zM512 256h192v-64h-192zM128 512h320v-320h-320z" />
<glyph unicode="&#xe90e;" glyph-name="pencil" d="M864 960c88.364 0 160-71.634 160-160 0-36.020-11.91-69.258-32-96l-64-64-224 224 64 64c26.742 20.090 59.978 32 96 32zM64 224l-64-288 288 64 592 592-224 224-592-592zM715.578 596.422l-448-448-55.156 55.156 448 448 55.156-55.156z" />
<glyph unicode="&#xe90f;" glyph-name="pencil2" d="M384 320l128 64 448 448-64 64-448-448-64-128zM289.3 92.902c-31.632 66.728-65.666 100.762-132.396 132.394l99.096 272.792 128 77.912 384 384h-192l-384-384-192-640 640 192 384 384v192l-384-384-77.912-128z" />
<glyph unicode="&#xe910;" glyph-name="quill" d="M0-64c128 384 463 1024 1024 1024-263-211-384-704-576-704s-192 0-192 0l-192-320h-64z" />
<glyph unicode="&#xe911;" glyph-name="pen" d="M1018.17 668.11l-286.058 286.058c-9.334 9.334-21.644 7.234-27.356-4.666l-38.354-79.904 267.198-267.198 79.904 38.354c11.9 5.712 14 18.022 4.666 27.356zM615.384 824.616l-263.384-21.95c-17.5-2.166-32.080-5.898-37.090-28.752-0.006-0.024-0.012-0.042-0.018-0.066-71.422-343.070-314.892-677.848-314.892-677.848l57.374-57.374 271.986 271.99c-5.996 12.53-9.36 26.564-9.36 41.384 0 53.020 42.98 96 96 96s96-42.98 96-96-42.98-96-96-96c-14.82 0-28.852 3.364-41.384 9.36l-271.988-271.986 57.372-57.374c0 0 334.778 243.47 677.848 314.892 0.024 0.006 0.042 0.012 0.066 0.018 22.854 5.010 26.586 19.59 28.752 37.090l21.95 263.384-273.232 273.232z" />
<glyph unicode="&#xe912;" glyph-name="blog" d="M384 960v-96c73.482 0 144.712-14.37 211.716-42.71 64.768-27.394 122.958-66.632 172.948-116.624s89.228-108.18 116.624-172.948c28.342-67.004 42.712-138.238 42.712-211.718h96c0 353.46-286.54 640-640 640zM384 768v-96c94.022 0 182.418-36.614 248.9-103.098 66.486-66.484 103.1-154.878 103.1-248.902h96c0 247.422-200.576 448-448 448zM480 576l-64-64-224-64-192-416 25.374-25.374 232.804 232.804c-1.412 5.286-2.178 10.84-2.178 16.57 0 35.346 28.654 64 64 64s64-28.654 64-64-28.654-64-64-64c-5.732 0-11.282 0.764-16.568 2.178l-232.804-232.804 25.372-25.374 416 192 64 224 64 64-160 160z" />
<glyph unicode="&#xe913;" glyph-name="eyedropper" d="M986.51 922.51c-49.988 49.986-131.032 49.986-181.020 0l-172.118-172.118-121.372 121.372-135.764-135.764 106.426-106.426-472.118-472.118c-8.048-8.048-11.468-18.958-10.3-29.456h-0.244v-160c0-17.674 14.328-32 32-32h160c0 0 2.664 0 4 0 9.212 0 18.426 3.516 25.456 10.544l472.118 472.118 106.426-106.426 135.764 135.764-121.372 121.372 172.118 172.118c49.986 49.988 49.986 131.032 0 181.020zM173.090 0h-109.090v109.090l469.574 469.572 109.088-109.088-469.572-469.574z" />
<glyph unicode="&#xe914;" glyph-name="droplet" d="M864.626 486.838c-65.754 183.44-205.11 348.15-352.626 473.162-147.516-125.012-286.87-289.722-352.626-473.162-40.664-113.436-44.682-236.562 12.584-345.4 65.846-125.14 198.632-205.438 340.042-205.438s274.196 80.298 340.040 205.44c57.27 108.838 53.25 231.962 12.586 345.398zM738.764 201.044c-43.802-83.252-132.812-137.044-226.764-137.044-55.12 0-108.524 18.536-152.112 50.652 13.242-1.724 26.632-2.652 40.112-2.652 117.426 0 228.668 67.214 283.402 171.242 44.878 85.292 40.978 173.848 23.882 244.338 14.558-28.15 26.906-56.198 36.848-83.932 22.606-63.062 40.024-156.34-5.368-242.604z" />
<glyph unicode="&#xe915;" glyph-name="paint-format" d="M1024 384v384h-192v64c0 35.2-28.8 64-64 64h-704c-35.2 0-64-28.8-64-64v-192c0-35.2 28.8-64 64-64h704c35.2 0 64 28.8 64 64v64h128v-256h-576v-128h-32c-17.674 0-32-14.326-32-32v-320c0-17.674 14.326-32 32-32h128c17.674 0 32 14.326 32 32v320c0 17.674-14.326 32-32 32h-32v64h576zM768 768h-704v64h704v-64z" />
<glyph unicode="&#xe916;" glyph-name="image" d="M959.884 832c0.040-0.034 0.082-0.076 0.116-0.116v-767.77c-0.034-0.040-0.076-0.082-0.116-0.116h-895.77c-0.040 0.034-0.082 0.076-0.114 0.116v767.772c0.034 0.040 0.076 0.082 0.114 0.114h895.77zM960 896h-896c-35.2 0-64-28.8-64-64v-768c0-35.2 28.8-64 64-64h896c35.2 0 64 28.8 64 64v768c0 35.2-28.8 64-64 64v0zM832 672c0-53.020-42.98-96-96-96s-96 42.98-96 96 42.98 96 96 96 96-42.98 96-96zM896 128h-768v128l224 384 256-320h64l224 192z" />
<glyph unicode="&#xe917;" glyph-name="images" horiz-adv-x="1152" d="M1088 832h-64v64c0 35.2-28.8 64-64 64h-896c-35.2 0-64-28.8-64-64v-768c0-35.2 28.8-64 64-64h64v-64c0-35.2 28.8-64 64-64h896c35.2 0 64 28.8 64 64v768c0 35.2-28.8 64-64 64zM128 768v-640h-63.886c-0.040 0.034-0.082 0.076-0.114 0.116v767.77c0.034 0.040 0.076 0.082 0.114 0.114h895.77c0.040-0.034 0.082-0.076 0.116-0.116v-63.884h-768c-35.2 0-64-28.8-64-64v0zM1088 0.116c-0.034-0.040-0.076-0.082-0.116-0.116h-895.77c-0.040 0.034-0.082 0.076-0.114 0.116v767.77c0.034 0.040 0.076 0.082 0.114 0.114h895.77c0.040-0.034 0.082-0.076 0.116-0.116v-767.768zM960 608c0-53.020-42.98-96-96-96s-96 42.98-96 96 42.98 96 96 96 96-42.98 96-96zM1024 64h-768v128l224 384 256-320h64l224 192z" />
<glyph unicode="&#xe918;" glyph-name="fashion-body" d="M10.019 949.985c-3.186-3.169-5.712-6.938-7.431-11.089s-2.599-8.602-2.587-13.095v-159.89c-0.030-3.308 0.597-6.59 1.842-9.655s3.086-5.853 5.415-8.203c2.329-2.35 5.1-4.215 8.154-5.488s6.329-1.928 9.638-1.928c3.308 0 6.584 0.655 9.638 1.928s5.825 3.138 8.154 5.488c2.329 2.35 4.169 5.138 5.415 8.203s1.872 6.347 1.842 9.655v108.568l225.4-225.4c4.71-4.638 11.062-7.227 17.672-7.201s12.943 2.662 17.617 7.336c4.674 4.674 7.312 11.006 7.337 17.616s-2.563 12.963-7.2 17.673l-225.4 225.4h108.568c6.604 0.059 12.919 2.724 17.568 7.415s7.258 11.029 7.258 17.634c0 6.605-2.608 12.943-7.258 17.634s-10.964 7.356-17.568 7.415h-159.892c-4.493 0.013-8.944-0.865-13.095-2.585s-7.919-4.245-11.087-7.431zM1013.984-53.981c-3.168-3.187-6.938-5.712-11.088-7.43-4.15-1.722-8.602-2.598-13.094-2.589h-159.891c-3.309-0.029-6.589 0.598-9.654 1.843s-5.853 3.085-8.202 5.414c-2.352 2.33-4.218 5.101-5.488 8.154-1.274 3.056-1.93 6.33-1.93 9.638s0.656 6.586 1.93 9.638c1.27 3.053 3.136 5.824 5.488 8.154 2.349 2.33 5.136 4.17 8.202 5.414s6.346 1.872 9.654 1.843h108.57l-225.402 225.398c-2.355 2.32-4.227 5.085-5.51 8.131s-1.949 6.317-1.965 9.622c-0.013 3.306 0.63 6.582 1.888 9.638 1.261 3.056 3.114 5.834 5.45 8.17 2.339 2.339 5.114 4.192 8.173 5.45 3.056 1.261 6.33 1.901 9.635 1.888 3.309-0.013 6.579-0.678 9.626-1.962s5.808-3.155 8.128-5.51l225.402-225.398v108.566c0.058 6.605 2.723 12.918 7.414 17.568s11.027 7.258 17.632 7.258c6.608 0 12.944-2.608 17.635-7.258s7.357-10.963 7.414-17.568v-159.891c0.013-4.493-0.864-8.944-2.582-13.094-1.722-4.15-4.246-7.92-7.434-11.088zM10.017-53.981c3.169-3.187 6.938-5.712 11.089-7.43 4.151-1.722 8.602-2.598 13.095-2.589h159.89c3.308-0.029 6.59 0.598 9.655 1.843s5.853 3.085 8.203 5.414c2.35 2.33 4.215 5.101 5.488 8.154 1.273 3.056 1.928 6.33 1.928 9.638s-0.655 6.586-1.928 9.638c-1.273 3.053-3.138 5.824-5.488 8.154s-5.138 4.17-8.203 5.414c-3.065 1.245-6.346 1.872-9.655 1.843h-108.568l225.4 225.398c2.356 2.32 4.229 5.085 5.512 8.131s1.95 6.317 1.963 9.622c0.013 3.306-0.629 6.582-1.888 9.638s-3.111 5.834-5.448 8.17c-2.338 2.339-5.115 4.192-8.171 5.45-3.057 1.261-6.332 1.901-9.638 1.888s-6.576-0.678-9.623-1.962c-3.047-1.283-5.81-3.155-8.13-5.51l-225.4-225.398v108.566c-0.059 6.605-2.724 12.918-7.415 17.568s-11.029 7.258-17.634 7.258c-6.605 0-12.942-2.608-17.634-7.258s-7.356-10.963-7.415-17.568v-159.891c-0.013-4.493 0.865-8.944 2.585-13.094s4.245-7.92 7.431-11.088zM1013.984 949.985c3.184-3.169 5.712-6.938 7.43-11.089s2.598-8.602 2.586-13.095v-159.89c0.032-3.308-0.595-6.59-1.84-9.655-1.248-3.065-3.088-5.853-5.418-8.203-2.326-2.35-5.098-4.215-8.154-5.488-3.053-1.273-6.33-1.928-9.638-1.928-3.306 0-6.582 0.655-9.635 1.928-3.056 1.273-5.827 3.138-8.157 5.488-2.326 2.35-4.166 5.138-5.414 8.203-1.245 3.065-1.872 6.347-1.84 9.655v108.568l-225.402-225.4c-2.32-2.356-5.082-4.229-8.128-5.511s-6.317-1.95-9.622-1.963c-3.306-0.013-6.582 0.629-9.638 1.888-3.059 1.259-5.834 3.111-8.173 5.448-2.336 2.338-4.189 5.115-5.45 8.171-1.258 3.057-1.901 6.332-1.888 9.638s0.682 6.577 1.962 9.623c1.283 3.047 3.155 5.81 5.514 8.129l225.398 225.4h-108.566c-6.605 0.059-12.922 2.724-17.568 7.415-4.65 4.691-7.261 11.029-7.261 17.634s2.611 12.943 7.261 17.634c4.646 4.691 10.963 7.356 17.568 7.415h159.891c4.493 0.013 8.944-0.865 13.094-2.585s7.92-4.245 11.088-7.431z" />
<glyph unicode="&#xe919;" glyph-name="precision" d="M1023.741 448c0 7.456-4.147 14.291-10.762 17.734l-192.829 100.333 192.829 100.335c6.614 3.442 10.762 10.279 10.762 17.733s-4.147 14.291-10.762 17.733l-166.090 86.421c-9.802 5.096-21.866 1.287-26.96-8.506s-1.29-21.865 8.506-26.961l132.010-68.686-448.448-233.337-448.448 233.337 448.448 233.338 156.854-81.615c9.802-5.096 21.866-1.285 26.963 8.506 5.094 9.793 1.286 21.865-8.509 26.961l-166.083 86.417c-5.786 3.009-12.669 3.009-18.454 0l-491.755-255.873c-6.615-3.44-10.763-10.277-10.763-17.733s4.148-14.291 10.763-17.733l192.83-100.334-192.83-100.336c-6.615-3.443-10.763-10.278-10.763-17.734 0-7.453 4.148-14.291 10.763-17.731l192.83-100.336-192.83-100.336c-6.615-3.443-10.763-10.278-10.763-17.734 0-7.453 4.148-14.291 10.763-17.731l491.755-255.875c2.893-1.501 6.061-2.256 9.229-2.256s6.333 0.752 9.226 2.256l491.757 255.875c6.614 3.44 10.762 10.278 10.762 17.731 0 7.456-4.147 14.291-10.762 17.734l-192.829 100.336 192.829 100.336c6.614 3.44 10.762 10.278 10.762 17.731zM521.222 410.531l255.616 133.005 59.6-31.011-447.734-233.709-79.765 41.501 183.602 95.533 10.227-5.318c2.893-1.504 6.058-2.256 9.226-2.256s6.336 0.752 9.229 2.256zM449.232 438.387l-183.604-95.533-79.385 41.306 183.606 95.533 79.382-41.306zM247.154 543.536l79.384-41.309-183.604-95.533-79.387 41.309 183.607 95.533zM960.445 211.862l-448.448-233.338-448.448 233.338 183.605 95.533 255.614-133.002c2.893-1.504 6.061-2.259 9.229-2.259s6.333 0.752 9.226 2.259l255.616 133.002 183.606-95.533zM511.997 214.662l-80.026 41.638 447.734 233.709 80.739-42.010-448.448-233.338zM757.872 792.084c5.258 0 10.416 2.139 14.131 5.857 3.718 3.718 5.859 8.876 5.859 14.133s-2.138 10.415-5.859 14.133c-3.715 3.718-8.874 5.857-14.131 5.857s-10.413-2.139-14.131-5.857c-3.718-3.718-5.859-8.876-5.859-14.133s2.138-10.415 5.859-14.133c3.718-3.718 8.874-5.857 14.131-5.857z" />
<glyph unicode="&#xe91a;" glyph-name="elegance" horiz-adv-x="956" d="M210.992 744.987l254.982-313.176c1.632-1.929 3.663-3.478 5.956-4.54s4.789-1.608 7.318-1.604c2.526 0.007 5.021 0.567 7.308 1.635 2.287 1.072 4.314 2.632 5.936 4.57l143.357 177.664c2.741 3.533 3.983 8.001 3.465 12.44-0.519 4.44-2.758 8.5-6.236 11.306s-7.922 4.137-12.37 3.704c-4.448-0.432-8.55-2.593-11.424-6.017l-89.163-110.497 67.86 228.381h116.303l-52.166-64.642c-2.765-3.53-4.028-8.007-3.516-12.461 0.509-4.454 2.751-8.529 6.24-11.345s7.946-4.144 12.407-3.7c4.461 0.444 8.571 2.625 11.435 6.073l66.567 82.491c4.946 6.139 7.489 13.866 7.154 21.741 0.109 6.873-1.864 13.618-5.652 19.351l-95.225 139.775c-1.618 2.248-3.731 4.091-6.182 5.385-2.447 1.294-5.161 2.003-7.929 2.073-0.133 0.094-318.802-0.067-318.982 0-2.183-0.091-4.335-0.552-6.363-1.363-3.097-1.278-5.779-3.391-7.745-6.104l-95.042-139.742c-4.175-6.178-6.261-13.531-5.954-20.981s2.993-14.606 7.663-20.419zM315.35 881.646l43.906-98.659h-111.004l67.098 98.659zM707.318 782.987h-105.878l39.755 97.553 66.123-97.553zM572.566 802.587l-63.109 96.875h102.581l-39.472-96.875zM544.601 782.987h-128.597l62.389 101.617 66.208-101.617zM387.932 802.503l-43.148 96.958h102.68l-59.532-96.958zM372.702 748.853l66.666-230.167-187.015 230.167h120.349zM479.386 503.204l-71.148 245.649h144.138l-72.991-245.649zM900.086 374.036c-11.571 6.223-24.75 8.823-37.82 7.462s-25.426-6.622-35.471-15.094l-126.194-106.172c-7.738 9.462-18.227 16.282-30.013 19.514-68.28 19.91-183.071 45.715-239.858 83.067-83.797 51.709-174.208 32.061-245.762-46.575l-4.313 9.974c-6.005 13.749-17.218 24.556-31.178 30.051s-29.531 5.233-43.297-0.734l-50.517-21.842c-13.783-5.984-24.631-17.186-30.168-31.153s-5.308-29.563 0.634-43.363l15.533-35.833c1.853-4.072 5.231-7.257 9.408-8.864s8.818-1.509 12.924 0.27c4.106 1.782 7.348 5.106 9.029 9.254s1.664 8.789-0.044 12.926l-15.525 35.806c-2.36 5.489-2.448 11.691-0.243 17.244s6.52 10.004 12.002 12.38l50.567 21.869c5.47 2.359 11.652 2.461 17.195 0.276 5.543-2.181 9.997-6.472 12.388-11.926l113.667-262.844c1.166-2.707 1.785-5.615 1.821-8.561s-0.511-5.871-1.61-8.605c-1.099-2.734-2.729-5.222-4.795-7.325-2.066-2.099-4.527-3.772-7.241-4.919l-50.358-21.941c-5.499-2.348-11.702-2.437-17.265-0.246s-10.040 6.485-12.46 11.953l-71 164.178c-1.843 4.082-5.219 7.277-9.397 8.895s-8.826 1.526-12.938-0.253c-4.113-1.778-7.361-5.103-9.044-9.254-1.683-4.154-1.666-8.803 0.047-12.94l71.016-164.215c4.46-10.138 11.777-18.753 21.057-24.794s20.12-9.247 31.193-9.223c15.443-1.85 58.090 21.122 72.625 26.474 13.794 5.939 24.665 17.111 30.224 31.065 5.559 13.95 5.352 29.536-0.575 43.336l-13.398 30.983c8.285-0.597 16.406-2.618 24.007-5.967 37.131-15.568 167.97-55.682 208.299-69.059 16.445-5.222 33.758-7.148 50.947-5.666 17.193 1.481 33.922 6.342 49.227 14.298l60.768 31.761c35.495 18.644 69.325 40.298 101.117 64.724 1.785 1.362 3.28 3.062 4.407 5.004 1.123 1.942 1.853 4.089 2.15 6.311 0.294 2.225 0.147 4.489-0.433 6.656s-1.584 4.198-2.949 5.98c-1.365 1.778-3.072 3.27-5.014 4.393-1.946 1.12-4.093 1.843-6.318 2.133s-4.485 0.137-6.653-0.447c-2.167-0.587-4.195-1.594-5.973-2.963-49.234-35.994-101.772-67.236-156.908-93.3-11.295-5.878-23.641-9.465-36.325-10.561-12.687-1.096-25.463 0.324-37.601 4.175l-153.167 49.183c-36.425 9.376-62.436 30.996-104.131 26.993l-66.739 154.32c49.729 54.153 116.899 107.343 213.455 51.282 59.75-39.41 176.773-65.884 248.477-86.76 6.352-1.997 11.725-6.304 15.053-12.073s4.369-12.578 2.918-19.077c-1.451-6.499-5.291-12.22-10.755-16.022-5.465-3.806-12.162-5.42-18.76-4.526l-145.449 22.808c-22.030 6.608-130.441-3.232-113.442-40.561 1.034-1.987 2.454-3.751 4.171-5.188 1.717-1.44 3.703-2.526 5.844-3.198 2.137-0.669 4.386-0.915 6.622-0.713 2.232 0.198 4.403 0.836 6.39 1.877 26.136 13.64 55.951 18.569 85.091 14.066l145.548-22.818c9.124-1.362 18.439-0.635 27.242 2.133 8.8 2.768 16.855 7.499 23.555 13.841 6.7 6.339 11.872 14.121 15.121 22.757 3.253 8.632 4.495 17.893 3.639 27.078l134.362 113.043c5.813 4.782 13.152 7.315 20.678 7.137s14.739-3.055 20.32-8.107c5.581-5.052 9.161-11.94 10.086-19.412s-0.864-15.025-5.045-21.286c-26.092-37.646-56.078-72.431-89.467-103.782-3.212-3.116-5.072-7.366-5.181-11.841-0.109-4.471 1.539-8.81 4.598-12.076 3.055-3.27 7.274-5.205 11.742-5.396 4.471-0.191 8.837 1.382 12.162 4.379 35.174 33.044 66.772 69.7 94.266 109.367 5.144 7.598 8.649 16.183 10.288 25.211 1.642 9.028 1.379 18.299-0.765 27.218-2.144 8.922-6.127 17.299-11.691 24.593s-12.588 13.35-20.627 17.777z" />
<glyph unicode="&#xe91b;" glyph-name="fb3" d="M951.456 942.656c15.36 0 28.442-5.689 39.251-15.929 10.81-11.378 15.93-23.893 15.93-39.822v-878.367c0-15.36-5.69-28.442-15.93-39.251-5.178-5.261-11.392-9.389-18.24-12.128-6.854-2.746-14.202-4.038-21.581-3.802h-249.741v381.157h128l17.632 150.756h-145.632v96.711c0 22.755 5.69 40.96 15.93 52.906 10.24 11.378 28.442 18.205 56.89 18.205h77.933v133.689c-34.131 3.413-72.243 5.689-114.342 5.689-57.459 0-104.108-17.067-139.38-51.2s-52.906-81.92-52.906-143.929v-112.071h-127.431v-150.756h127.431v-381.157h-472.178c-15.929 0-28.444 5.69-39.822 15.93-5.26 5.178-9.39 11.392-12.132 18.246s-4.034 14.202-3.797 21.574v877.798c0 15.36 5.689 28.445 15.929 39.254 5.179 5.26 11.391 9.39 18.244 12.132s14.2 4.034 21.578 3.797l878.365 0.569z" />
<glyph unicode="&#xe91c;" glyph-name="x2" d="M1024 448c0-282.758-229.242-512-512-512-282.76 0-512 229.242-512 512 0 282.76 229.24 512 512 512 282.758 0 512-229.24 512-512zM736.358 686.933h-81.069l-133.596-152.678-115.473 152.678h-167.288l199.885-261.359-189.44-216.506h81.101l146.227 167.046 127.761-167.046h163.155l-208.382 275.454 177.118 202.41zM671.744 257.606h-44.92l-293.205 383.349h48.196l289.928-383.349z" />
<glyph unicode="&#xe91d;" glyph-name="tiktok" d="M877.562 529.546c-41.267-3.828-82.797 3.656-120.134 21.649s-69.069 45.818-91.789 80.484v-351.41c-0.006-51.36-15.245-101.562-43.783-144.262s-69.098-75.981-116.549-95.629c-47.452-19.648-99.664-24.787-150.036-14.765-50.372 10.016-96.641 34.752-132.957 71.066-36.316 36.32-61.049 82.586-71.071 132.96s-4.883 102.584 14.767 150.035c19.651 47.452 52.929 88.011 95.629 116.55s92.904 43.776 144.262 43.785c5.432 0 10.73-0.49 16.072-0.846v-127.955c-5.343 0.623-10.552 1.603-16.028 1.603-35.152 0-68.865-13.964-93.721-38.82s-38.82-58.572-38.82-93.72c0-35.155 13.964-68.864 38.82-93.722s58.569-38.822 93.721-38.822c73.194 0 137.839 57.658 137.839 130.899l1.336 596.767h122.438c5.587-53.193 29.696-102.728 68.109-139.946s88.685-59.747 142.029-63.652v-142.247z" />
<glyph unicode="&#xe91e;" glyph-name="heart3" d="M979.728 757.801c-28.688 45.493-70.705 81.034-120.327 101.78-56.225 23.6-119.375 27.848-182.619 12.254-57.956-14.292-114.406-45.29-164.783-90.258-50.376 44.972-106.836 75.972-164.799 90.262-63.246 15.6-126.4 11.348-182.624-12.268-49.622-20.752-91.638-56.3-120.322-101.8-30.040-47.487-45.322-105.238-44.194-167 5.008-274.572 414.012-524.244 495.953-571.511 4.862-2.804 10.375-4.28 15.988-4.28s11.127 1.475 15.988 4.28c81.948 47.272 490.989 296.99 495.953 571.557 1.115 61.759-14.173 119.503-44.216 166.983zM959.956 591.97c-1.601-88.776-60.781-192.279-171.127-299.311-102.191-99.116-218.429-173.824-276.829-208.586-58.398 34.755-174.62 109.454-276.799 208.575-110.352 107.022-169.532 210.518-171.152 299.292-1.768 96.933 45.078 174.923 125.312 208.625 26.295 10.983 54.525 16.585 83.023 16.476 73.588 0 151.433-35.624 216.799-102.093 2.977-3.028 6.528-5.432 10.445-7.073 3.919-1.643 8.122-2.488 12.369-2.488s8.453 0.845 12.369 2.488c3.917 1.641 7.468 4.045 10.445 7.073 90.813 92.341 205.701 125.147 299.802 85.623 80.242-33.69 127.092-111.668 125.342-208.596v-0.005z" />
<glyph unicode="&#xe91f;" glyph-name="order" d="M993.999 715.999h-153.165l-0.833 64.202c-0.109 99.16-80.815 179.798-180.001 179.798-99.254 0-180.001-80.748-180.001-180 0-0.13 0-0.26 0.002-0.39l0.826-63.611h-152.827c-16.57 0-30.001-13.431-30.001-29.999v-210.001h-268c-16.568 0-30-13.431-30-29.999v-420.001c0-49.627 40.374-90 90-90h844c49.627 0 90 40.374 90 90v660.001c0 16.568-13.433 29.999-30.001 29.999zM660.001 900c66.167 0 119.999-53.832 119.999-120 0-0.13 0-0.26 0.002-0.39l0.829-63.611h-239.995l-0.835 64.183c0.098 66.086 53.893 119.818 120.001 119.818zM663.999 26c0-16.542-13.456-30.001-29.999-30.001h-544c-16.542 0-30 13.459-30 30.001v390h603.999v-390zM964.001 26c0-16.542-13.459-30.001-30.001-30.001h-215.159c3.328 9.391 5.16 19.484 5.16 30.001v420.001c0 16.568-13.433 29.999-30.001 29.999h-336v180.001h123.608l0.393-30.39c0.212-16.435 13.603-29.61 29.992-29.61 0.13 0 0.263 0 0.398 0.002 16.568 0.214 29.824 13.819 29.608 30.387l-0.386 29.61h239.995l0.396-30.39c0.212-16.435 13.601-29.61 29.989-29.61 0.133 0 0.263 0 0.398 0.002 16.568 0.214 29.824 13.819 29.608 30.387l-0.386 29.61h122.389v-630zM512 356.001c-16.568 0-30.001-13.433-30.001-30.001v-29.999c0-66.169-53.832-120.001-119.999-120.001-66.169 0-120.001 53.832-120.001 120.001v29.999c0 16.568-13.431 30.001-29.999 30.001s-30-13.433-30-30.001v-29.999c0-99.254 80.749-180.001 180-180.001s180.001 80.747 180.001 180.001v29.999c0 16.568-13.433 30.001-30.001 30.001z" />
<glyph unicode="&#xe920;" glyph-name="quote5" d="M571.063 131.245v383.064l126.861 253.623c8.733 15.486 24.815 25.412 42.584 26.306h110.582c16.279 0 23.725-11.614 16.279-26.306l-126.064-253.623h227.613c16.279 0 29.481-13.202 29.481-29.481v-353.582c0-16.279-13.202-29.481-29.481-29.481h-368.374c-16.279 0-29.481 13.202-29.481 29.481zM25.6 131.245v383.064l126.762 253.623c8.833 15.486 24.916 25.412 42.684 26.306h110.481c16.379 0 23.725-11.614 16.379-26.306l-126.165-253.623h227.714c16.279 0 29.481-13.202 29.481-29.481v-353.582c0-16.279-13.202-29.481-29.481-29.481h-368.374c-16.278 0-29.481 13.202-29.481 29.481z" />
<glyph unicode="&#xe921;" glyph-name="minus1" d="M896 448c0-8.486-3.371-16.627-9.374-22.626-5.999-6.003-14.14-9.374-22.626-9.374h-704c-8.487 0-16.626 3.371-22.627 9.374-6.001 5.999-9.373 14.14-9.373 22.626s3.372 16.627 9.373 22.626c6.001 6.003 14.141 9.374 22.627 9.374h704c8.486 0 16.627-3.371 22.626-9.374 6.003-5.999 9.374-14.14 9.374-22.626z" />
<glyph unicode="&#xe922;" glyph-name="plus1" d="M896 448c0-8.486-3.371-16.627-9.374-22.626-5.999-6.003-14.14-9.374-22.626-9.374h-320v-320c0-8.486-3.371-16.627-9.374-22.626-5.999-6.003-14.14-9.374-22.626-9.374s-16.627 3.371-22.626 9.374c-6.003 5.999-9.374 14.14-9.374 22.626v320h-320c-8.487 0-16.626 3.371-22.627 9.374-6.001 5.999-9.373 14.14-9.373 22.626s3.372 16.627 9.373 22.626c6.001 6.003 14.141 9.374 22.627 9.374h320v320c0 8.487 3.371 16.626 9.374 22.627 5.999 6.001 14.14 9.373 22.626 9.373s16.627-3.372 22.626-9.373c6.003-6.001 9.374-14.141 9.374-22.627v-320h320c8.486 0 16.627-3.371 22.626-9.374 6.003-5.999 9.374-14.14 9.374-22.626z" />
<glyph unicode="&#xe923;" glyph-name="location1" horiz-adv-x="805" d="M744.843 710.384c-63.042 132.16-192.962 215.68-339.2 217.6-146.562 1.92-276.482-78.72-341.762-211.2-67.84-137.281-51.84-296.319 42.24-415.681l242.88-308.48c12.48-15.678 31.042-24.638 50.878-24.638 19.84 0 38.404 8.96 50.882 24.638l249.282 316.8c90.558 115.2 107.52 268.482 44.8 400.641v0.32zM650.123 349.104l-250.562-316.8-242.88 308.48c-78.4 99.522-91.84 232.96-35.2 347.521 54.4 110.080 158.4 175.36 278.72 175.36h4.802c123.516-1.92 229.12-69.44 282.236-181.12 53.12-111.679 39.362-236.161-37.116-333.441zM399.883 730.864c-96.322 0-174.722-78.4-174.722-174.719 0-96.322 78.4-174.72 174.722-174.72 96.318 0 174.72 78.398 174.72 174.72 0 96.319-78.402 174.719-174.72 174.719zM399.883 445.744c-61.122 0-110.722 49.602-110.722 110.72 0 61.121 49.6 110.721 110.722 110.721 61.118 0 110.72-49.6 110.72-110.721 0-61.118-49.602-110.72-110.72-110.72z" />
<glyph unicode="&#xe924;" glyph-name="shipped" d="M1023.799 707.463c-1.196 11.014-8.038 20.762-18.267 25.536l-480 224c-8.58 4.002-18.487 4.002-27.067 0l-479.999-224c-10.228-4.774-17.072-14.52-18.27-25.536-0.026-0.23-0.196-3.294-0.196-3.462v-544c0-13.085 7.966-24.85 20.116-29.711l479.998-192c3.814-1.525 7.852-2.289 11.886-2.289s8.071 0.761 11.886 2.289l480 192c12.149 4.86 20.114 16.625 20.114 29.711v544c0 0.168-0.176 3.234-0.201 3.462zM512 892.688l399.488-186.428-153.827-61.532-407.007 172.664 161.346 75.296zM272.62 780.977l400.693-169.986-161.313-64.526-399.488 159.796 160.108 74.716zM64 656.737l416-166.401v-475.070l-416 166.4v475.072zM544 15.265v475.070l416 166.401v-475.072l-416-166.4z" />
<glyph unicode="&#xe925;" glyph-name="confirm" horiz-adv-x="956" d="M655.353 575.713c-15.531 15.548-40.776 15.548-56.306 0l-170.957-170.94-71.404 71.383c-15.53 15.551-40.777 15.551-56.307 0-15.551-15.551-15.551-40.759 0-56.31l99.554-99.553c7.765-7.786 17.961-11.67 28.157-11.67 10.192 0 20.388 3.884 28.153 11.67l199.11 199.11c15.551 15.551 15.551 40.759 0 56.31zM915.91 488.059c-21.982 0-39.82-17.947-39.82-40.059 0-220.887-178.644-400.592-398.223-400.592s-398.222 179.705-398.222 400.592c0 220.885 178.643 400.59 398.222 400.59 106.902 0 207.254-42.022 282.597-118.334 15.473-15.723 40.701-15.803 56.31-0.2 15.609 15.583 15.691 40.941 0.198 56.644-90.395 91.575-210.838 142.009-339.104 142.009-263.504 0-477.867-215.638-477.867-480.708 0-265.073 214.363-480.71 477.867-480.71s477.867 215.637 477.867 480.71c0 22.112-17.841 40.059-39.823 40.059z" />
<glyph unicode="&#xe926;" glyph-name="plus2" d="M953.251 379.113h-376.087v-385.396h-197.353v385.396h-376.087v178.735h376.087v385.396h197.353v-385.396h376.087v-178.735z" />
<glyph unicode="&#xe927;" glyph-name="fire2" d="M735.744 478.395c-1.525 3.088-4.181 3.129-5.632 2.885-1.217-0.208-4.090-1.095-4.534-4.797-0.529-4.447-1.257-8.937-2.179-13.35-3.812-18.303-15.053-34.59-30.851-44.683-15.69-10.028-34.15-13.24-52.144-9.089-24.565 5.712-42.183 23.038-50.955 50.108-7.248 22.384 3.459 46.861 14.791 72.776 6.628 15.169 13.488 30.855 16.907 46.466 26.624 121.545-39.726 209.567-81.646 251.218-0.867 0.86-1.777 1.295-2.626 1.481-1.381 0.303-2.606-0.053-3.225-0.3-1.201-0.479-3.227-1.727-3.315-4.701-3.040-102.942-71.594-150.238-144.174-200.311-74.813-51.614-159.607-110.115-188.663-242.76-33.761-154.118 64.159-306.972 218.282-340.736 126.899-27.796 258.161 36.17 319.208 155.551 41.626 81.402 41.933 196.638 0.757 280.239zM435.821 100.739c-38.978 6.696-72.649 28.575-94.811 61.52-21.924 32.597-29.723 73.085-21.397 111.098 15.625 71.327 54.368 117.714 142.949 171.162 1.45 0.876 2.758 0.967 3.829 0.732 0.971-0.213 1.748-0.693 2.266-1.099 1.091-0.855 2.778-2.75 1.818-5.84-9.308-29.945-14.812-55.285-16.36-75.327-3.95-51.183 25.097-92.518 72.286-102.855 23.137-5.063 47.079-1.183 67.422 10.928 2.361 1.405 4.5 0.694 5.302 0.33 1.058-0.484 2.395-1.49 2.765-3.538 3.294-18.432 2.941-37.154-1.052-55.643-16.060-74.394-90.086-124.399-165.016-111.468z" />
<glyph unicode="&#xe928;" glyph-name="sidebar" d="M360.727-52.364h279.273c252.742 0 360.727 107.985 360.727 360.727v279.273c0 252.742-107.985 360.727-360.727 360.727h-279.273c-252.742 0-360.727-107.985-360.727-360.727v-279.273c0-252.742 107.52-360.727 360.727-360.727zM640 878.545c214.575 0 290.909-76.335 290.909-290.909v-279.273c0-214.575-76.335-290.909-290.909-290.909h-279.273c-214.575 0-290.909 76.335-290.909 290.909v279.273c0 214.575 76.335 290.909 290.909 290.909h279.273zM686.545-52.364c19.084 0 34.909 15.825 34.909 34.909v930.909c0 19.084-15.825 34.909-34.909 34.909s-34.909-15.825-34.909-34.909v-930.909c0-19.084 15.36-34.909 34.909-34.909zM360.778 293.939c8.844 0 17.687 3.258 24.669 10.24l119.156 119.156c13.498 13.498 13.498 35.84 0 49.338l-119.156 119.157c-13.498 13.498-35.84 13.498-49.338 0s-13.498-35.84 0-49.338l94.022-94.488-94.487-94.487c-13.498-13.498-13.498-35.84 0-49.338 6.982-6.982 15.825-10.24 25.135-10.24z" />
<glyph unicode="&#xe929;" glyph-name="video" d="M512 960c-282.768 0-512-229.232-512-512s229.232-512 512-512c282.788 0 512 229.233 512 512s-229.212 512-512 512zM512 38.4c-225.854 0-409.6 183.747-409.6 409.6s183.746 409.6 409.6 409.6c225.853 0 409.6-183.746 409.6-409.6s-183.747-409.6-409.6-409.6zM698.225 483.84l-248.301 143.36c-34.14 19.702-62.074 3.584-62.074-35.84v-286.72c0-39.424 27.934-55.562 62.074-35.84l248.301 143.36c34.14 19.702 34.14 51.978 0 71.68z" />
<glyph unicode="&#xe92a;" glyph-name="car2" d="M969.357 485.355l-66.825 28.919-56.747 110.423c-15.334 30.234-46.447 49.076-80.405 48.858h-97.715v27.606c0 49.953-39.876 90.705-89.83 90.705h-467.106c-49.953 0-89.39-40.971-89.39-90.705v-422.85c-0.438-30.455 23.881-55.433 54.335-55.868 0.219 0 0.438 0 0.876 0h11.612c0-2.193-0.219-3.068-0.219-4.382-0.219-62.66 50.391-113.711 113.052-113.929 62.661-0.222 113.71 50.389 113.929 113.050 0 0.439 0 0.657 0 1.097 0 1.536 0 2.193-0.219 4.382h377.498c0-2.189 0-3.068 0-4.382-0.218-62.66 50.389-113.711 113.050-113.929 62.665-0.218 113.711 50.394 113.929 113.054 0 0.435 0 0.657 0 1.092 0 1.536 0 2.193 0 4.382h28.267c30.451 0 55.211 24.759 55.211 55.215 0 0.218 0 0.435 0 0.875v155.554c0.435 21.474-12.71 41.847-33.301 50.833zM201.653 147.729c-38.56 0-69.672 31.113-69.672 69.675 0 38.558 31.111 69.67 69.672 69.67s69.672-31.113 69.672-69.67c0-38.345-31.331-69.675-69.672-69.675zM623.846 265.822h-319.439c-18.404 40.094-58.717 65.728-102.755 65.51-44.257 0.218-84.351-25.199-102.755-65.51h-22.347c-6.792 0-11.393 5.257-11.393 12.049v112.836h558.688v-124.885zM623.846 700.941v-266.419h-558.688v266.419c0 25.634 19.937 46.886 45.571 46.886h467.106c25.634-0.219 46.229-21.252 46.012-46.667v-0.219zM667.665 629.516h97.715c17.306 0.219 33.519-9.202 41.626-24.757l43.819-84.789h-183.159v109.546zM805.914 147.729c-38.562 0-69.675 31.113-69.675 69.675 0 38.558 31.113 69.67 69.675 69.67 38.558 0 69.67-31.113 69.67-69.67 0-38.345-31.113-69.675-69.67-69.675zM959.057 277.871c0-6.793-4.599-12.049-11.392-12.049h-38.997c-26.513 56.747-93.99 81.284-150.737 54.775-24.102-11.174-43.601-30.673-54.775-54.775h-35.49v210.33h214.711l69.67-30.673c4.382-2.193 7.228-7.010 7.010-11.831v-155.776z" />
<glyph unicode="&#xe92b;" glyph-name="compare3" horiz-adv-x="951" d="M79.226 566.87h300.55l-90.846-90.846c-3.784-3.655-6.802-8.027-8.879-12.86s-3.169-10.033-3.215-15.293c-0.046-5.26 0.957-10.478 2.948-15.347s4.934-9.292 8.654-13.012c3.72-3.72 8.144-6.662 13.012-8.654s10.086-2.994 15.347-2.948c5.26 0.045 10.459 1.138 15.293 3.215s9.205 5.095 12.86 8.879l158.476 158.476c7.427 7.43 11.6 17.505 11.6 28.011s-4.173 20.581-11.6 28.010l-158.476 158.476c-3.655 3.784-8.027 6.802-12.86 8.879s-10.033 3.169-15.293 3.215c-5.26 0.045-10.478-0.957-15.347-2.949s-9.292-4.934-13.012-8.654c-3.72-3.72-6.662-8.144-8.654-13.013s-2.994-10.086-2.948-15.347c0.045-5.26 1.139-10.459 3.215-15.293s5.095-9.206 8.879-12.861l90.846-90.846h-300.55c-10.508 0-20.585-4.174-28.015-11.604s-11.604-17.507-11.604-28.014c0-10.508 4.174-20.585 11.604-28.015s17.507-11.604 28.015-11.604zM871.621 329.154h-300.549l90.846 90.846c7.217 7.472 11.211 17.48 11.12 27.868s-4.257 20.325-11.603 27.671c-7.346 7.346-17.282 11.512-27.671 11.603s-20.395-3.904-27.867-11.121l-158.476-158.476c-7.428-7.43-11.6-17.505-11.6-28.011s4.172-20.581 11.6-28.011l158.476-158.473c7.472-7.219 17.48-11.213 27.867-11.125 10.388 0.095 20.325 4.257 27.671 11.608 7.346 7.344 11.513 17.276 11.603 27.67 0.091 10.386-3.903 20.392-11.12 27.867l-90.846 90.844h300.549c10.511 0 20.582 4.174 28.014 11.604s11.608 17.507 11.608 28.015c0 10.508-4.176 20.585-11.608 28.015s-17.503 11.604-28.014 11.604z" />
<glyph unicode="&#xe92c;" glyph-name="check" horiz-adv-x="1463" d="M483.31 160.601l721.718 721.711c21.261 21.27 56.174 21.053 77.227 0l69.68-69.68c21.052-21.052 21.052-56.182 0-77.227l-721.711-721.72c-21.052-21.052-55.965-21.27-77.234 0l-69.68 69.682c-21.271 21.27-21.271 55.965 0 77.234zM257.912 600.478l439.634-439.635c21.263-21.27 21.012-56.223 0-77.234l-69.68-69.68c-21.012-21.005-56.223-21.005-77.234 0l-439.635 439.634c-21.012 21.012-21.262 55.965 0 77.236l69.68 69.68c21.27 21.261 55.966 21.261 77.236 0z" />
<glyph unicode="&#xe92d;" glyph-name="eye1" d="M512 753.195c-195.646 0-373.068-107.040-503.988-280.901-10.683-14.244-10.683-34.144 0-48.387 130.919-174.073 308.342-281.109 503.988-281.109s373.066 107.036 503.99 280.9c10.678 14.244 10.678 34.144 0 48.387-130.924 174.071-308.343 281.111-503.99 281.111zM526.034 233.079c-129.872-8.169-237.121 98.867-228.952 228.95 6.703 107.249 93.634 194.18 200.883 200.883 129.872 8.169 237.119-98.871 228.949-228.952-6.912-107.037-93.838-193.969-200.88-200.881zM519.541 332.368c-69.964-4.398-127.778 53.202-123.17 123.168 3.561 57.814 50.483 104.526 108.297 108.297 69.966 4.399 127.776-53.206 123.168-123.169-3.772-58.023-50.694-104.735-108.296-108.296z" />
<glyph unicode="&#xe92e;" glyph-name="copy1" horiz-adv-x="931" d="M174.971-26.764h409.6c67.76 0 122.88 55.119 122.88 122.875v573.44c0 67.76-55.12 122.88-122.88 122.88h-409.6c-67.76 0-122.88-55.12-122.88-122.88v-573.44c0-67.756 55.12-122.875 122.88-122.875zM134.011 669.552c0 22.58 18.36 40.96 40.96 40.96h409.6c22.6 0 40.96-18.38 40.96-40.96v-573.44c0-22.58-18.36-40.96-40.96-40.96h-409.6c-22.6 0-40.96 18.38-40.96 40.96v573.44zM871.258 423.793v409.6c0 67.76-55.12 122.88-122.88 122.88h-409.6c-22.62 0-40.96-18.34-40.96-40.96s18.34-40.96 40.96-40.96h409.6c22.6 0 40.96-18.38 40.96-40.96v-409.6c0-22.62 18.34-40.96 40.96-40.96s40.96 18.34 40.96 40.96z" />
<glyph unicode="&#xe92f;" glyph-name="share1" d="M790.233 271.209c-49.062 0-93.262-21.185-123.94-54.886l-275.948 170.905c7.367 18.859 11.453 39.343 11.453 60.773 0 21.437-4.086 41.921-11.453 60.773l275.948 170.913c30.678-33.703 74.878-54.898 123.94-54.898 92.425 0 167.611 75.187 167.611 167.609s-75.186 167.601-167.611 167.601c-92.419 0-167.605-75.188-167.605-167.609 0-21.43 4.090-41.914 11.451-60.773l-275.937-170.906c-30.68 33.703-74.883 54.898-123.945 54.898-92.421 0-167.609-75.195-167.609-167.609 0-92.42 75.188-167.612 167.609-167.612 49.062 0 93.265 21.191 123.945 54.898l275.937-170.906c-7.361-18.86-11.451-39.34-11.451-60.777 0-92.413 75.186-167.605 167.605-167.605 92.425 0 167.611 75.192 167.611 167.605 0 92.419-75.186 167.605-167.611 167.605zM683.743 792.391c0 58.719 47.773 106.492 106.49 106.492 58.723 0 106.496-47.773 106.496-106.492s-47.773-106.492-106.496-106.492c-58.717 0-106.49 47.774-106.49 106.492zM234.197 341.51c-58.726 0-106.5 47.773-106.5 106.491s47.773 106.492 106.5 106.492c58.719 0 106.484-47.773 106.484-106.492s-47.765-106.491-106.484-106.491zM683.743 103.611c0 58.717 47.773 106.49 106.49 106.49 58.723 0 106.496-47.773 106.496-106.49s-47.773-106.49-106.496-106.49c-58.717 0-106.49 47.773-106.49 106.49z" />
<glyph unicode="&#xe930;" glyph-name="ask" d="M499.027 312.266c-0.119 0-0.237 0-0.355 0-21.757 0.199-39.257 17.992-39.060 39.773l0.177 19.704c0 1.123 0.060 2.267 0.178 3.389 5.459 57.328 43.513 92.466 74.118 120.706 10.366 9.578 20.18 18.624 28.536 28.063 10.189 11.489 24.969 35.020 9.42 63.418-17.914 32.793-61.663 42.074-95.658 34.29-35.512-8.119-48.598-38.448-53.249-55.791-5.636-21.028-27.255-33.502-48.282-27.886-21.028 5.636-33.502 27.255-27.885 48.283 15.706 58.668 56.46 99.56 111.798 112.232 74.473 17.007 149.479-13.086 182.41-73.291 27.413-50.135 19.902-108.96-19.607-153.538-10.981-12.376-22.706-23.215-34.057-33.679-28.279-26.112-45.957-43.572-48.952-68.778l-0.158-17.797c-0.158-21.697-17.776-39.099-39.375-39.099zM499.007 194.102c-10.248 0-20.495 4.138-27.787 11.433-7.488 7.288-11.627 17.541-11.627 27.985 0 10.246 4.139 20.492 11.627 27.787 14.584 14.583 40.991 14.583 55.574 0 7.488-7.294 11.627-17.541 11.627-27.787 0-10.445-4.139-20.498-11.43-27.985-7.488-7.294-17.539-11.433-27.984-11.433zM510.89-64c-44.833 0-89.273 5.831-132.097 17.36-184.537 49.646-329.029 202.511-368.108 389.475-39.828 190.467 33.679 390.691 187.296 510.096 88.8 69.034 200.796 107.069 315.373 107.069 79.321 0 158.089-18.446 227.812-53.308 172.183-86.139 283.431-266.105 283.431-458.505 0-156.986-74.083-308.297-198.156-404.746-89.118-69.289-201.192-107.442-315.55-107.442zM513.373 881.172c-97.137 0-191.967-32.123-266.992-90.475-130.008-101.058-192.243-270.52-158.524-431.723 33.068-158.149 155.311-287.486 311.431-329.482 36.143-9.716 73.705-14.661 111.601-14.661 96.92 0 191.809 32.256 267.188 90.847 105.020 81.631 167.707 209.667 167.707 342.511 0 162.8-94.142 315.096-239.851 387.993-58.85 29.423-125.418 44.992-192.56 44.992z" />
<glyph unicode="&#xe931;" glyph-name="compare2" horiz-adv-x="1161" d="M1147.481 267.653l-297.595-297.595c-4.089-4.39-9.018-7.905-14.493-10.342-5.475-2.444-11.387-3.755-17.381-3.857-5.994-0.109-11.947 0.997-17.504 3.243s-10.609 5.584-14.848 9.824c-4.239 4.239-7.578 9.284-9.824 14.848-2.246 5.557-3.345 11.51-3.243 17.504 0.109 5.994 1.42 11.906 3.857 17.381 2.444 5.475 5.96 10.404 10.342 14.493l221.355 221.409h-784.993c-11.839 0-23.193 4.697-31.564 13.073-8.372 8.369-13.074 19.724-13.074 31.562s4.703 23.194 13.074 31.564c8.372 8.372 19.725 13.075 31.564 13.075h892.779c8.82-0.008 17.442-2.63 24.781-7.536 7.332-4.906 13.046-11.874 16.425-20.026 3.372-8.152 4.253-17.121 2.54-25.775-1.72-8.654-5.967-16.605-12.199-22.845zM982.016 596.788c0 11.839-4.704 23.194-13.073 31.564s-19.729 13.074-31.567 13.074h-784.989l221.35 221.409c4.385 4.086 7.903 9.015 10.343 14.49s3.752 11.387 3.857 17.381c0.106 5.994-0.997 11.947-3.241 17.506s-5.587 10.608-9.826 14.846c-4.239 4.239-9.288 7.581-14.847 9.826s-11.512 3.348-17.506 3.242c-5.994-0.106-11.904-1.418-17.38-3.857s-10.404-5.957-14.491-10.343l-297.593-297.593c-6.235-6.243-10.48-14.193-12.199-22.847s-0.835-17.623 2.54-25.775c3.375-8.152 9.091-15.12 16.424-20.026s15.957-7.528 24.78-7.536h892.777c11.837 0 23.197 4.704 31.567 13.074s13.073 19.726 13.073 31.564z" />
<glyph unicode="&#xe932;" glyph-name="car" d="M810.668 746.669h-89.6c-9.905 48.153-36.105 91.42-74.189 122.508s-85.718 48.096-134.879 48.158h-298.667c-56.559-0.068-110.781-22.565-150.775-62.559s-62.491-94.216-62.558-150.775v-384.002c0.107-38.214 13.036-75.283 36.716-105.277s56.741-51.172 93.887-60.141c-4.021-21.35-3.334-43.325 2.014-64.382 5.347-21.062 15.225-40.699 28.945-57.549s30.951-30.497 50.491-40.001c19.54-9.5 40.918-14.625 62.643-15.011s43.271 3.97 63.138 12.767c19.866 8.802 37.573 21.83 51.885 38.177 14.312 16.351 24.884 35.626 30.978 56.478 6.094 20.857 7.564 42.789 4.307 64.275h174.168c-1.098-7.061-1.685-14.192-1.75-21.336 0-39.606 15.732-77.587 43.739-105.593 28.002-28.006 65.987-43.739 105.593-43.739s77.591 15.732 105.593 43.739c28.006 28.006 43.739 65.987 43.739 105.593-0.047 8.923-0.917 17.822-2.602 26.582 37.129 8.988 70.172 30.171 93.836 60.165 23.664 29.989 36.58 67.053 36.682 105.253v213.335c-0.070 56.559-22.565 110.782-62.557 150.775-39.997 39.993-94.217 62.491-150.775 62.559zM938.668 533.335v-42.667h-213.336v170.667h85.336c33.946 0 66.504-13.486 90.508-37.49s37.492-56.562 37.492-90.51zM85.333 320v384.002c0 33.948 13.486 66.505 37.491 90.509s56.562 37.491 90.509 37.491h298.667c33.946 0 66.504-13.486 90.508-37.491 24.008-24.004 37.492-56.562 37.492-90.509v-469.334h-469.333c-22.632 0-44.337 8.993-60.34 24.995s-24.994 37.706-24.994 60.337zM341.333 128c0-16.97-6.743-33.252-18.745-45.251-12.003-12.004-28.281-18.749-45.255-18.749s-33.253 6.744-45.255 18.749c-12.002 11.999-18.745 28.281-18.745 45.251 0.027 7.294 1.371 14.522 3.968 21.336h120.064c2.598-6.814 3.942-14.043 3.968-21.336zM746.668 64c-16.975 0-33.252 6.744-45.256 18.749-12.004 11.999-18.744 28.281-18.744 45.251 0.019 7.294 1.364 14.522 3.966 21.336h120.064c2.607-6.814 3.952-14.043 3.97-21.336 0-16.97-6.744-33.252-18.749-45.251-11.999-12.004-28.281-18.749-45.251-18.749zM853.332 234.668h-128v170.668h213.336v-85.336c0-22.63-8.993-44.335-24.995-60.337s-37.706-24.995-60.342-24.995z" />
<glyph unicode="&#xe933;" glyph-name="coupon" d="M512-64c-69.376 0-134.827 30.464-179.541 83.582-65.707-7.55-133.419 17.324-182.486 66.351-49.024 49.064-73.77 116.904-67.84 186.112-51.669 41.128-82.133 106.58-82.133 175.956s30.464 134.827 83.627 179.541c-7.467 65.579 17.28 133.419 66.346 182.486 49.067 49.109 116.779 73.813 186.070 67.84 41.13 51.626 106.581 82.133 175.957 82.133s134.828-30.464 179.54-83.584c65.792 7.509 133.423-17.323 182.486-66.347 49.026-49.066 73.77-116.906 67.84-186.112 51.67-41.13 82.134-106.581 82.134-175.957s-30.464-134.828-83.628-179.54c7.471-65.583-17.278-133.423-66.346-182.486-49.11-49.068-116.95-73.77-186.070-67.84-41.128-51.628-106.58-82.134-175.956-82.134zM335.915 103.424c23.936 0 46.122-10.282 61.781-28.844 28.501-33.834 70.146-53.248 114.304-53.248 44.162 0 85.802 19.414 114.306 53.248 17.194 20.438 42.24 30.762 68.948 28.588 44.116-3.714 87.208 11.948 118.444 43.18 31.185 31.185 46.932 74.366 43.176 118.44-2.304 26.624 8.108 51.754 28.588 68.994 33.792 28.458 53.206 70.144 53.206 114.26 0 44.12-19.414 85.803-53.206 114.262-20.438 17.195-30.892 42.368-28.588 68.992 3.756 44.075-11.944 87.253-43.176 118.443-31.237 31.189-74.584 46.762-118.402 43.178-26.708-2.432-51.796 8.15-68.99 28.544-28.504 33.835-70.144 53.248-114.306 53.248-44.158 0-85.803-19.413-114.304-53.248-17.237-20.437-42.368-30.677-68.949-28.586-44.331 3.84-87.211-11.947-118.443-43.179-31.189-31.189-46.933-74.368-43.179-118.443 2.304-26.624-8.106-51.754-28.586-68.992-33.792-28.458-53.206-70.145-53.206-114.261s19.414-85.802 53.206-114.26c20.437-17.199 30.89-42.37 28.586-68.994-3.754-44.074 11.947-87.254 43.179-118.444 31.232-31.232 74.795-46.848 118.4-43.176 2.432 0.214 4.821 0.298 7.211 0.298zM384 618.667c-23.552 0-42.667-19.115-42.667-42.667s19.115-42.667 42.667-42.667c23.552 0 42.667 19.115 42.667 42.667s-19.115 42.667-42.667 42.667zM640 362.668c-23.552 0-42.668-19.116-42.668-42.668s19.116-42.668 42.668-42.668c23.552 0 42.668 19.116 42.668 42.668s-19.116 42.668-42.668 42.668zM462.165 296.318l170.667 256.002c13.098 19.584 7.81 46.123-11.818 59.179-19.67 13.141-46.122 7.765-59.178-11.819l-170.668-256.002c-13.099-19.582-7.808-46.122 11.819-59.178 7.296-4.864 15.488-7.168 23.637-7.168 13.781 0 27.349 6.656 35.541 18.986z" />
<glyph unicode="&#xe934;" glyph-name="note" d="M810.668 960h-597.335c-117.76 0-213.333-95.573-213.333-213.333v-597.335c0-117.76 95.573-213.332 213.333-213.332h483.839c57.176 0 110.508 22.188 151.040 62.292l113.496 113.496c40.104 40.104 62.292 93.864 62.292 151.040v483.839c0 117.76-95.572 213.333-213.332 213.333zM213.333 21.332c-70.4 0-128 57.6-128 128v597.335c0 70.4 57.6 128 128 128h597.335c70.4 0 128-57.6 128-128v-426.667h-170.668c-70.4 0-128-57.6-128-128v-170.668h-426.667zM787.628 58.88c-17.068-17.068-38.828-29.012-62.296-34.132v167.68c0 23.464 19.2 42.664 42.668 42.664h167.68c-5.12-23.464-17.068-45.224-34.132-62.292l-113.92-113.92z" />
<glyph unicode="&#xe935;" glyph-name="gift2" d="M989.105 520.729c29.836 34.063 41.519 80.789 31.232 124.992l-3.863 16.027c-13.824 54.529-60.514 96.115-116.229 103.498-38.172 5.046-76.944 9.345-116.14 12.85 0.931 7.009 1.396 14.111 1.396 21.26 0 88.593-71.773 160.644-160.028 160.644-44.316 0-84.438-18.176-113.487-47.474-28.998 29.297-69.169 47.474-113.483 47.474-88.255 0-160.032-72.051-160.032-160.644 0-7.195 0.512-14.345 1.443-21.4-39.24-3.551-78.061-7.85-116.277-12.943-55.718-7.429-102.406-49.062-116.137-103.545l-3.863-15.98c-10.241-44.249 1.443-90.975 31.28-125.039 5.865-6.729 12.242-12.756 19.038-18.083-28.255-143.542-23.134-307.596 14.011-441.419 14.802-53.127 59.488-92.705 113.949-100.743 109.481-16.165 219.753-24.204 329.977-24.204s220.546 8.085 330.026 24.204c54.416 8.038 99.146 47.616 113.901 100.743 37.194 133.869 42.268 297.97 14.057 441.653 6.8 5.327 13.224 11.401 19.088 18.13h0.14zM888.045 672.635c18.344-2.43 33.657-16.027 38.172-34.063l3.444-13.971c3.491-15.186-0.326-30.559-10.519-42.193-9.961-11.308-23.599-17.055-39.196-15.467-105.29 10.654-213.187 16.588-321.41 17.896v111.441c111.76-1.682 223.009-9.579 329.463-23.69l0.047 0.047zM625.52 866.501c36.911 0 66.932-30.138 66.932-67.192 0-4.158-0.047-9.953-0.698-14.438-43.846 2.523-88.022 4.159-132.333 4.813-0.372 3.131-0.791 7.056-0.791 9.626 0 37.007 30.022 67.192 66.937 67.192h-0.047zM398.596 866.501c36.866 0 66.937-30.138 66.937-67.192 0-2.57-0.42-6.541-0.793-9.672-44.267-0.701-88.488-2.337-132.336-4.906-0.652 4.579-0.698 10.42-0.698 14.579 0 37.007 30.024 67.192 66.936 67.192h-0.047zM94.359 624.274l3.445 14.205c4.515 17.803 19.829 31.447 38.123 33.876 106.502 14.158 217.751 22.148 329.561 23.924v-111.441c-108.272-1.355-216.217-7.43-321.462-18.13-15.221-1.729-29.232 4.159-39.147 15.467-10.194 11.635-14.011 26.961-10.52 42.1zM157.757 86.039c-31.978 115.13-37.238 261.334-14.476 387.077 3.351 0.093 6.75 0.279 10.147 0.605 102.219 10.422 206.999 16.263 312.105 17.664v-461.419c-90.212 1.964-180.328 9.486-269.933 22.71-18.061 2.662-32.909 15.793-37.797 33.41l-0.047-0.047zM866.309 86.039c-4.841-17.385-20.061-30.794-37.795-33.41-89.558-13.224-179.721-20.745-269.931-22.71v461.512c105.104-1.308 209.883-7.103 312.101-17.427 3.351-0.33 6.703-0.517 10.054-0.61 22.812-125.831 17.599-272.133-14.383-387.263l-0.047-0.093z" />
<glyph unicode="&#xe936;" glyph-name="pen1" d="M539.311 728.726l-439.040-439.041c-16.178-16.208-26.403-37.409-29.013-60.16l-17.493-153.599c-1.14-10.802 0.011-21.722 3.378-32.049s8.874-19.826 16.163-27.879c7.288-8.053 16.193-14.478 26.133-18.856s20.692-6.609 31.553-6.55h8.96l153.6 17.494c22.66 2.621 43.815 12.673 60.16 28.586l439.040 439.467-253.44 252.587zM941.231 765.857l-111.36 111.36c-9.316 9.353-20.387 16.774-32.578 21.838s-25.262 7.67-38.462 7.67c-13.201 0-26.272-2.607-38.462-7.67s-23.262-12.485-32.578-21.838l-103.254-103.254 253.44-253.44 103.254 103.254c9.352 9.315 16.774 20.387 21.838 32.578s7.671 25.261 7.671 38.462c0 13.2-2.607 26.272-7.671 38.462s-12.486 23.261-21.838 32.578z" />
<glyph unicode="&#xe937;" glyph-name="close" d="M624.781 448l382.86 382.901c10.528 10.54 16.339 24.602 16.358 39.597 0 15.003-5.811 29.082-16.358 39.605l-33.549 33.544c-10.554 10.565-24.614 16.352-39.622 16.352-14.982 0-29.043-5.786-39.597-16.352l-382.857-382.876-382.876 382.876c-10.531 10.565-24.601 16.352-39.603 16.352-14.985 0-29.055-5.786-39.586-16.352l-33.567-33.544c-21.845-21.847-21.845-57.381 0-79.203l382.868-382.901-382.868-382.886c-10.54-10.554-16.342-24.614-16.342-39.61s5.803-29.056 16.342-39.61l33.559-33.542c10.531-10.56 24.609-16.352 39.586-16.352 15.002 0 29.072 5.792 39.603 16.352l382.876 382.884 382.859-382.884c10.547-10.56 24.608-16.352 39.597-16.352h0.013c14.995 0 29.056 5.792 39.603 16.352l33.555 33.542c10.528 10.541 16.339 24.614 16.339 39.61s-5.811 29.056-16.339 39.603l-382.854 382.893z" />
<glyph unicode="&#xe938;" glyph-name="mail1" horiz-adv-x="1479" d="M0 953.556v-1011.11h1479.111v1011.11h-1479.111zM1320.084 866.889l-580.528-505.855-580.531 505.855h1161.059zM86.667 814.984l387.201-337.39-387.201-387.203v724.593zM147.949 29.11l391.413 391.414 200.194-174.445 200.192 174.442 391.413-391.411h-1183.212zM1392.447 90.391l-387.203 387.203 387.203 337.39v-724.593z" />
<glyph unicode="&#xe939;" glyph-name="youtube1" d="M984.090 746.45c-36.966 43.939-105.21 61.862-235.539 61.862h-473.108c-133.315 0-202.716-19.079-239.54-65.86-35.903-45.611-35.903-112.815-35.903-205.827v-177.281c0-180.196 42.598-271.684 275.443-271.684h473.108c113.024 0 175.654 15.814 216.173 54.592 41.549 39.763 59.277 104.691 59.277 217.092v177.281c0 98.090-2.778 165.69-39.91 209.825zM657.414 423.51l-214.838-112.278c-4.803-2.515-10.055-3.757-15.3-3.757-5.939 0-11.865 1.6-17.114 4.774-9.883 5.99-15.918 16.702-15.918 28.257v223.84c0 11.535 6.019 22.237 15.882 28.229 9.866 5.992 22.138 6.402 32.374 1.084l214.838-111.556c10.931-5.675 17.792-16.959 17.811-29.27 0.013-12.321-6.822-23.622-17.734-29.323z" />
<glyph unicode="&#xe93a;" glyph-name="instagram1" d="M1023.014 658.941c-2.4 54.409-11.2 91.814-23.802 124.227-13.005 34.405-33.011 65.208-59.219 90.815-25.606 26.005-56.608 46.212-90.618 59.011-32.602 12.604-69.811 21.403-124.218 23.801-54.816 2.602-72.218 3.204-211.246 3.204-139.027 0-156.429-0.602-211.041-3.001-54.409-2.399-91.814-11.205-124.22-23.802-34.413-13.003-65.215-33.006-90.822-59.215-26.005-25.607-46.204-56.612-59.011-90.62-12.604-32.608-21.403-69.811-23.802-124.22-2.602-54.815-3.204-72.217-3.204-211.244 0-139.030 0.602-156.431 3.001-211.043 2.399-54.406 11.205-91.814 23.809-124.224 13.003-34.406 33.202-65.21 59.207-90.816 25.607-26.003 56.613-46.214 90.62-59.014 32.608-12.602 69.811-21.402 124.227-23.802 54.605-2.406 72.014-3.002 211.041-3.002 139.025 0 156.427 0.595 211.044 3.002 54.406 2.4 91.814 11.2 124.218 23.802 68.819 26.611 123.226 81.018 149.83 149.83 12.602 32.608 21.408 69.818 23.802 124.224 2.4 54.611 3.002 72.013 3.002 211.043 0 139.027-0.205 156.429-2.598 211.041zM930.797 240.858c-2.202-50.010-10.605-77.011-17.6-95.014-17.21-44.614-52.614-80.019-97.222-97.222-18.003-7.002-45.21-15.405-95.021-17.6-54.010-2.406-70.208-3.002-206.838-3.002-136.628 0-153.030 0.595-206.845 3.002-50.010 2.195-77.015 10.598-95.018 17.6-22.2 8.205-42.407 21.203-58.808 38.208-17.004 16.608-30.006 36.608-38.211 58.81-7.002 18.003-15.402 45.21-17.597 95.021-2.406 54.010-3 70.214-3 206.842s0.594 153.030 3 206.837c2.196 50.010 10.596 77.015 17.597 95.019 8.205 22.207 21.207 42.406 38.413 58.816 16.597 17.004 36.601 30.006 58.808 38.203 18.004 7.002 45.212 15.402 95.019 17.605 54.010 2.399 70.217 3 206.837 3 136.831 0 153.030-0.602 206.847-3 50.010-2.204 77.011-10.604 95.014-17.605 22.202-8.197 42.406-21.199 58.81-38.203 17.005-16.605 30.010-36.609 38.214-58.816 6.995-18.004 15.398-45.204 17.6-95.019 2.4-54.010 3.002-70.209 3.002-206.837s-0.602-152.634-3.002-206.644zM513.895 710.938c-145.224 0-263.052-117.82-263.052-263.052 0-145.23 117.828-263.054 263.052-263.054 145.235 0 263.052 117.824 263.052 263.054s-117.818 263.052-263.052 263.052zM513.895 277.254c-94.214 0-170.635 76.41-170.635 170.632s76.421 170.635 170.635 170.635c94.221 0 170.636-76.413 170.636-170.635s-76.415-170.632-170.636-170.632zM848.768 721.34c0-33.913-27.501-61.411-61.421-61.411-33.914 0-61.408 27.498-61.408 61.411 0 33.921 27.494 61.411 61.408 61.411 33.92 0 61.421-27.49 61.421-61.411z" />
<glyph unicode="&#xe93b;" glyph-name="fb2" d="M512.003 957.875c-282.769 0-512.003-229.234-512.003-512.003 0-253.61 184.587-463.645 426.611-504.31v397.492h-123.51v143.043h123.51v105.474c0 122.38 74.746 189.071 183.933 189.071 52.297 0 97.238-3.897 110.281-5.613v-127.92l-75.731-0.036c-59.365 0-70.811-28.205-70.811-69.61v-91.292h141.659l-18.477-143.043h-123.182v-400.99c253.326 30.835 449.716 246.214 449.716 507.881 0 282.622-229.235 511.856-511.997 511.856z" />
<glyph unicode="&#xe93c;" glyph-name="x" d="M607.315 526.406l373.011 433.594h-88.39l-323.887-376.484-258.686 376.484h-298.363l391.184-569.31-391.184-454.69h88.396l342.031 397.58 273.19-397.58h298.362l-405.664 590.406zM486.244 385.674l-354.997 507.782h135.772l624.956-893.937h-135.77l-269.961 386.154z" />
<glyph unicode="&#xe93d;" glyph-name="support2" d="M389.303 155.349c-0.004-8.053 6.524-14.586 14.579-14.588 2.763-0.002 5.47 0.785 7.804 2.261l212.653 134.615h187.366c40.642 0.045 73.579 32.979 73.626 73.621v330.357c-0.047 40.64-32.983 73.576-73.626 73.621h-599.418c-40.64-0.047-73.575-32.981-73.62-73.621v-330.355c0.047-40.64 32.98-73.574 73.62-73.619h177.042l-0.026-122.293zM212.287 306.805c-24.54 0.030-44.426 19.915-44.454 44.454v330.357c0.029 24.54 19.914 44.427 44.454 44.452h599.418c24.542-0.026 44.429-19.91 44.459-44.452v-330.355c-0.028-24.54-19.913-44.427-44.452-44.454h-191.599c-2.761 0-5.468-0.783-7.802-2.259l-193.833-122.705 0.030 110.377c0 8.053-6.53 14.583-14.583 14.583l-191.638 0.002z" />
<glyph unicode="&#xe93e;" glyph-name="shipping3" d="M830.765 641.664l-311.767 180c-2.127 1.23-4.542 1.878-6.999 1.878s-4.873-0.648-7.002-1.878l-311.767-180c-2.129-1.227-3.898-2.993-5.127-5.12-1.229-2.129-1.875-4.542-1.873-6.999v-360c-0.001-2.458 0.646-4.873 1.875-7.002s2.996-3.898 5.125-5.126l311.767-180c2.129-1.227 4.544-1.873 7.002-1.873 2.455 0 4.87 0.646 6.999 1.873l311.767 180c2.129 1.229 3.898 2.997 5.126 5.126s1.875 4.544 1.873 7.002v360c0.002 2.458-0.644 4.87-1.873 6.999-1.229 2.127-2.997 3.893-5.126 5.12zM511.998 793.376l283.767-163.831-283.767-163.834-283.77 163.834 283.77 163.831zM214.229 605.297l283.767-163.834v-327.671l-283.767 163.808v327.697zM809.764 277.6l-283.767-163.808v327.671l283.767 163.834v-327.697z" />
<glyph unicode="&#xe93f;" glyph-name="return3" d="M520.412 637.562c-1.551 0.896-3.313 1.367-5.105 1.367s-3.552-0.471-5.103-1.367l-155.671-89.877c-1.553-0.896-2.842-2.185-3.738-3.735-0.896-1.553-1.367-3.313-1.367-5.105v-179.753c0-1.792 0.471-3.554 1.367-5.105s2.185-2.839 3.738-3.735l155.671-89.879c1.551-0.896 3.311-1.367 5.103-1.367s3.554 0.471 5.105 1.367l155.674 89.879c1.551 0.896 2.839 2.185 3.735 3.735s1.367 3.313 1.367 5.105v179.753c0 1.792-0.471 3.552-1.367 5.105-0.896 1.551-2.185 2.839-3.735 3.735l-155.674 89.877zM515.307 616.934l135.255-78.091-135.255-78.089-135.253 78.089 135.253 78.091zM369.845 521.163l135.253-78.089v-156.188l-135.253 78.091v156.186zM525.517 286.895v156.186l135.255 78.091v-156.188l-135.255-78.089zM174.587 407.571c0.159-1.331 0.053-2.682-0.311-3.974s-0.978-2.498-1.809-3.552c-0.831-1.052-1.86-1.933-3.031-2.588s-2.459-1.073-3.791-1.231c-0.403-0.047-0.808-0.073-1.213-0.073-2.497 0.004-4.907 0.922-6.772 2.583-1.866 1.66-3.058 3.947-3.351 6.426-1.677 14.217-2.518 28.521-2.517 42.835 0.015 63.439 16.78 125.751 48.6 180.634s77.567 100.39 132.616 131.922c55.049 31.532 117.446 47.97 180.885 47.652s125.67-17.38 180.399-49.462c44.354-26.118 82.635-61.389 112.292-103.458l-0.821 117.607c-0.009 1.341 0.245 2.67 0.749 3.912 0.506 1.242 1.248 2.373 2.189 3.328 1.901 1.928 4.491 3.022 7.198 3.041s5.312-1.038 7.241-2.938c1.926-1.901 3.021-4.49 3.040-7.197l1.069-153.209c0.011-1.346-0.247-2.682-0.755-3.927-0.51-1.248-1.259-2.381-2.208-3.337s-2.078-1.713-3.322-2.231c-1.242-0.516-2.575-0.783-3.923-0.783-0.096 0-0.196 0-0.29 0l-142.325 4.105c-1.346 0.030-2.673 0.326-3.904 0.87s-2.342 1.327-3.268 2.302c-0.928 0.977-1.653 2.125-2.135 3.383-0.48 1.257-0.708 2.596-0.67 3.942 0.038 1.344 0.343 2.669 0.896 3.898 0.55 1.227 1.342 2.334 2.323 3.253 0.981 0.922 2.135 1.641 3.394 2.112 1.261 0.474 2.603 0.693 3.947 0.646l123.667-3.567c-30.797 48.119-73.182 87.738-123.27 115.219-50.086 27.482-106.272 41.949-163.403 42.074-187.362 0-339.792-152.429-339.792-339.791 0.001-13.51 0.795-27.010 2.378-40.427zM872.209 447.998c-0.021-61.867-15.972-122.684-46.315-176.599s-74.054-99.108-126.927-131.23c-52.873-32.124-113.126-50.091-174.957-52.175-61.83-2.082-123.157 11.787-178.074 40.277-41.781 21.835-78.916 51.593-109.333 87.612l-4.506-104.907c-0.111-2.628-1.235-5.109-3.134-6.931-1.899-1.82-4.427-2.837-7.055-2.839-0.147 0-0.292 0-0.448 0.011-2.705 0.117-5.252 1.301-7.083 3.298-1.83 1.995-2.793 4.634-2.677 7.339l5.687 132.546c0.107 2.641 1.235 5.137 3.147 6.959 1.914 1.824 4.459 2.833 7.102 2.812l146.549-0.715c1.342-0.002 2.669-0.269 3.906-0.785s2.359-1.271 3.307-2.221c0.945-0.949 1.694-2.078 2.204-3.317s0.772-2.569 0.768-3.908c-0.002-1.34-0.269-2.667-0.785-3.904s-1.271-2.362-2.221-3.307c-0.951-0.947-2.078-1.696-3.317-2.206s-2.569-0.77-3.908-0.768h-0.049l-125.73 0.608c31.925-39.113 72.132-70.654 117.724-92.346s95.428-32.996 145.916-33.097c187.362 0 339.791 152.431 339.791 339.793 0 2.707 1.075 5.303 2.991 7.217 1.914 1.916 4.51 2.991 7.217 2.991 2.709 0 5.306-1.075 7.219-2.991 1.916-1.914 2.991-4.51 2.991-7.217z" />
<glyph unicode="&#xe940;" glyph-name="customer" d="M530.312 702.904h36.571v-270.245h-36.571v270.245zM489.037 506.387c-29.75 0-56.283 7.717-79.286 23.131-68.187 45.678-78.171 141.88-78.574 145.957-0.768 8.083 3.877 15.707 11.411 18.725 3.858 1.555 95.341 37.339 161.28-7.277 41.032-27.776 61.824-79.16 61.824-152.741 0-8.046-5.267-15.16-12.965-17.499-22.602-6.877-43.85-10.296-63.69-10.296zM369.923 664.686c5.102-25.379 20.189-78.098 60.325-104.886 25.912-17.28 59.045-21.211 98.597-11.757-2.213 53.064-17.445 89.526-45.349 108.488-37.046 25.162-89.088 15.086-113.573 8.155zM608.186 463.581c-19.822 0-41.070 3.438-63.69 10.294-7.699 2.341-12.965 9.454-12.965 17.499 0 73.582 20.81 124.965 61.842 152.741 65.885 44.635 157.405 8.832 161.245 7.278 7.552-3.018 12.195-10.643 11.41-18.725-0.384-4.078-10.35-100.278-78.555-145.957-23.003-15.414-49.536-23.131-79.286-23.131zM568.378 505.254c39.606-9.472 72.776-5.523 98.723 11.848 40.248 26.954 55.205 79.47 60.216 104.778-24.467 6.912-76.544 17.024-113.592-8.138-27.904-18.962-43.136-55.424-45.347-108.488zM589.942 677.888c-14.555 0-30.117 2.506-46.646 7.517-7.717 2.339-12.984 9.453-12.984 17.499 0 53.942 15.507 91.776 46.099 112.475 48.987 33.17 116.224 6.839 119.077 5.687 7.552-3.017 12.195-10.642 11.41-18.724-0.293-2.981-7.606-73.49-57.93-107.191-17.206-11.502-36.955-17.262-59.026-17.262zM567.304 716.965c24.539-5.101 45.056-2.248 61.166 8.504 24.502 16.328 35.109 47.542 39.37 65.92-17.811 4.424-48.824 8.776-71.059-6.365-17.462-11.904-27.355-34.76-29.477-68.059zM502.413 63.891c-55.389 0-104.522 21.358-130.414 35.109-12.214 6.474-25.618 12.746-40.942 19.2-8.776 3.694-17.298 7.224-21.851 8.923-0.054 0-3.584 0.824-14.939 0.477-14.043-0.512-28.982-2.634-44.453-6.291-21.339-5.083-38.619-9.526-51.328-13.221-31.432-9.106-55.771 8.411-65.206 20.187-64.165 79.069-55.058 150.365-54.638 153.363 0.988 19.949 19.365 37.541 23.040 40.832 13.55 10.806 126.867 98.834 194.323 85.851 44.251-8.522 74.57-19.95 88.704-26.002 11.995-5.139 22.162-9.034 32-12.216 34.413-11.136 104.594-29.733 184.411-27.446l2.23 0.182c48.275 3.822 79.891 2.067 96.768-5.467 1.848-0.822 11.795-5.485 22.363-14.080 47.544 26.038 68.645 42.058 85.725 55.022 7.040 5.339 13.238 10.021 19.931 14.445 18.358 12.088 43.574 14.336 69.229 6.016 19.731-6.363 34.542-20.626 43.941-42.405 17.738-41.014-19.146-84.040-23.387-88.795-125.019-133.797-260.901-177.189-266.624-178.981-1.408-0.475-47.122-15.926-129.078-23.789-6.656-0.603-13.275-0.915-19.803-0.915zM300.026 164.28c9.782 0 16.75-0.933 22.070-2.925 4.864-1.848 13.861-5.541 23.168-9.454 16.33-6.875 30.685-13.605 43.886-20.608 20.37-10.826 73.838-35.274 129.573-30.080 77.221 7.406 120.795 22.016 121.234 22.163 1.774 0.547 133.176 42.806 250.971 168.867 6.437 7.296 24.046 32.896 16.824 49.646-5.12 11.83-12.197 19.072-21.614 22.107-14.829 4.79-28.965 4.133-37.851-1.755-6.034-3.986-11.611-8.229-17.957-13.056-16.421-12.47-38.509-29.238-84.626-54.838 7.515-15.323 13.477-50.67-16.586-80.037-9.472-9.235-21.522-16.31-35.803-21.011-18.579-6.125-50.469-15.067-96.731-22.747-10.149-1.755-19.402 5.083-21.029 15.032-1.664 9.965 5.066 19.4 15.030 21.027 46.282 7.699 77.056 16.714 91.283 21.413 8.96 2.963 16.274 7.15 21.723 12.472 19.346 18.87 8.813 38.637 8.722 38.838-6.29 13.184-22.016 22.418-27.062 24.685-3.84 1.72-21.029 6.986-78.939 2.378-2.286-0.182-3.768-0.274-4.243-0.293-85.467-1.901-159.944 17.354-196.571 29.24-10.77 3.474-22.272 7.88-35.146 13.384-12.763 5.467-40.301 15.835-81.187 23.699-38.493 7.496-120.96-43.813-163.804-77.861-4.187-3.894-10.039-12.123-10.276-16.421-0.439-3.84-6.912-60.782 46.756-126.922 1.043-1.189 11.173-12.562 26.552-7.99 13.275 3.84 31.122 8.43 53.046 13.642 17.81 4.205 35.126 6.656 51.53 7.24 2.469 0.128 4.827 0.165 7.058 0.165zM388.974 346.478c-4.571 0-9.142 1.701-12.691 5.102-7.259 7.022-7.496 18.597-0.475 25.856 45.642 47.397 107.008 73.509 172.8 73.509 50.378 0 98.56-15.434 139.357-44.598 8.21-5.87 10.11-17.299 4.222-25.528s-17.28-10.112-25.526-4.224c-34.56 24.723-75.373 37.779-118.070 37.779-55.754 0-107.776-22.126-146.451-62.282-3.602-3.73-8.374-5.614-13.165-5.614z" />
<glyph unicode="&#xe941;" glyph-name="return2" d="M512 32c229.749 0 416 186.251 416 416s-186.251 416-416 416c-229.75 0-416-186.25-416-416s186.25-416 416-416zM890.182 448c0-208.862-169.32-378.182-378.182-378.182-208.864 0-378.182 169.32-378.182 378.182 0 208.864 169.318 378.182 378.182 378.182 208.862 0 378.182-169.318 378.182-378.182zM357.768 559.888c7.245 1.738 14.76 2.034 22.117 0.869 7.358-1.166 14.414-3.77 20.766-7.661 6.352-3.893 11.875-8.998 16.253-15.026 1.166-1.605 2.246-3.267 3.235-4.979 5.221-9.045 16.784-12.144 25.83-6.922 9.042 5.222 12.144 16.786 6.92 25.83-1.648 2.853-3.445 5.624-5.389 8.299-7.299 10.045-16.504 18.554-27.090 25.042-10.587 6.486-22.347 10.826-34.61 12.768s-24.789 1.45-36.861-1.448c-12.074-2.899-23.458-8.147-33.502-15.445-10.715-7.784-19.691-17.76-26.306-29.216-5.222-9.045-2.123-20.608 6.922-25.83 9.043-5.222 20.608-2.123 25.829 6.922 3.966 6.869 9.36 12.861 15.784 17.53 6.027 4.379 12.858 7.528 20.101 9.267zM639.901 559.888c7.243 1.738 14.757 2.034 22.117 0.869 7.355-1.166 14.413-3.77 20.765-7.661 6.35-3.893 11.875-8.998 16.254-15.026 1.165-1.605 2.243-3.267 3.234-4.979 5.219-9.045 16.784-12.144 25.83-6.922 9.042 5.222 12.144 16.786 6.92 25.83-1.648 2.853-3.445 5.624-5.389 8.299-7.299 10.045-16.504 18.554-27.090 25.042-10.584 6.486-22.346 10.826-34.611 12.768-12.259 1.942-24.786 1.45-36.861-1.448-12.072-2.899-23.454-8.147-33.499-15.445-10.718-7.784-19.691-17.76-26.306-29.216-5.224-9.045-2.126-20.608 6.92-25.83 9.042-5.222 20.606-2.123 25.83 6.922 3.966 6.869 9.36 12.861 15.784 17.53 6.026 4.379 12.854 7.528 20.101 9.267zM711.608 368.846c8.706-5.766 11.088-17.502 5.322-26.208-22.491-33.954-53.070-61.784-88.982-80.995-35.912-19.208-76.034-29.195-116.765-29.059-40.726 0.136-80.781 10.389-116.565 29.835-35.262 19.166-65.29 46.67-87.464 80.098-5.773 8.707-3.397 20.442 5.306 26.213s20.437 3.395 26.21-5.306c18.763-28.288 44.17-51.558 74.008-67.774 30.278-16.459 64.171-25.134 98.635-25.248 34.459-0.114 68.41 8.336 98.8 24.59 30.387 16.254 56.258 39.803 75.291 68.533 5.768 8.707 17.499 11.090 26.205 5.322z" />
<glyph unicode="&#xe942;" glyph-name="shipping2" horiz-adv-x="1040" d="M232.845 789.467c8.131 16.261 24.75 26.533 42.931 26.533h488.448c18.179 0 34.802-10.272 42.931-26.533l73.365-146.734c1.992-3.979 2.76-8.131 2.528-12.126 3.104-4.045 4.952-9.11 4.952-14.606v-488c0-26.512-21.488-48-48-48h-640c-26.509 0-48 21.488-48 48v488c0 5.496 1.847 10.562 4.955 14.606-0.238 3.995 0.534 8.147 2.523 12.126l73.366 146.734zM856 608h-672v-480c0-8.84 7.163-16 16-16h640c8.84 0 16 7.16 16 16v480zM528 640h318.112l-67.578 135.155c-2.71 5.421-8.251 8.845-14.31 8.845h-236.224v-144zM496 784v-144h-302.112l67.579 135.155c2.71 5.421 8.25 8.845 14.309 8.845h220.224zM512 184c-8.837 0-16 7.163-16 16v40.002c-79.606 0.454-144 65.128-144 144.842 0 12.789 10.368 23.157 23.157 23.157h8c25.974 0 50.354-6.837 71.432-18.81-17.341 49.723-3.714 106.048 40.88 145.395 9.13 8.056 23.931 8.056 33.062 0 44.594-39.347 58.219-95.674 40.88-145.397 21.078 11.973 45.456 18.811 71.432 18.811h8c12.789 0 23.157-10.368 23.157-23.157 0-79.714-64.394-144.387-144-144.842v-40.002c0-8.837-7.163-16-16-16zM639.658 375.994c-4.483-57.798-52.51-103.382-111.315-103.987 4.483 57.798 52.51 103.382 111.315 103.987zM384.342 375.994c4.483-57.798 52.51-103.382 111.315-103.987-4.483 57.798-52.51 103.382-111.315 103.987zM512 506.256c41.013-42.787 41.013-105.744 0-148.531-41.014 42.787-41.014 105.744 0 148.531z" />
<glyph unicode="&#xe943;" glyph-name="leaf1" d="M1022.327 926.207c-4.072 12.39-14.914 21.206-27.875 22.668-0.897 0.096-75.376 8.484-183.208 8.488-70.441-0.002-155.112-3.574-242.993-15.51-65.914-8.962-133.644-22.618-198.624-43.214-48.73-15.454-95.929-34.816-139.599-59.204-32.744-18.294-63.506-39.428-91.296-63.902-41.676-36.676-76.654-81.015-100.946-133.749-24.328-52.709-37.814-113.576-37.786-182.45 0-46.716 6.144-97.141 19.084-151.581 11.962-50.322 29.738-104.099 53.902-161.673-25.084-51.917-46.958-106.667-64.792-164.335-5.43-17.552 4.398-36.186 21.954-41.613 17.552-5.43 36.186 4.398 41.616 21.955 14.834 47.955 32.644 93.794 52.904 137.613 50.382-25.129 101.51-44.976 152.365-59.173 61.328-17.115 122.27-26.056 181.021-26.058 55.581 0 109.234 8.016 159.127 24.849 37.41 12.617 72.692 30.215 104.86 52.987 48.272 34.136 89.395 79.972 120.369 137.050 31.015 57.090 51.956 125.272 61.050 204.483 23.342 203.422 53.107 320.732 76.137 385.645 11.5 32.46 21.292 51.802 27.548 62.31 3.128 5.256 5.366 8.306 6.473 9.716 0.278 0.352 0.488 0.604 0.619 0.758l0.171 0.2-0.005 0.006c8.743 8.864 11.839 21.82 7.924 33.732zM113.982 223.681c-12.764 35.065-22.736 68.194-30.166 99.455-11.898 50.069-17.278 95.33-17.278 136.199 0.008 47.643 7.272 89.307 20.186 126.181 11.316 32.266 26.976 60.923 46.344 86.73 16.95 22.569 36.762 42.942 59.034 61.369 38.952 32.24 85.497 58.476 136.519 79.47 76.51 31.522 162.953 51.142 247.359 62.666 84.409 11.548 166.758 15.078 235.266 15.074 25.883 0 49.786-0.502 71.095-1.256-87.72-41.402-207.202-105.444-331.464-195.492 0.158 1.831 0.329 3.684 0.522 5.564 2.053 20.090 6.173 42.922 13.734 66.050 5.705 17.466-3.83 36.25-21.294 41.954s-36.25-3.83-41.952-21.294c-9.335-28.592-14.224-56.014-16.677-79.935-1.634-15.95-2.177-30.349-2.177-42.535 0-6.090 0.137-11.627 0.344-16.533 0.063-1.524 0.134-2.97 0.212-4.367-15.962-12.698-31.924-25.81-47.828-39.38-58.758-50.156-116.702-106.372-170.954-168.958-0.339 6.885-0.522 13.719-0.522 20.482 0 15.621 0.858 30.903 2.414 45.756 4.506 43.152 14.882 82.7 26.773 116.175 6.149 17.315-2.904 36.335-20.214 42.484-17.318 6.149-36.337-2.904-42.485-20.217-13.316-37.513-25.076-82.071-30.25-131.521-1.778-17.018-2.774-34.606-2.774-52.675-0.002-29.559 2.694-60.414 8.954-92.028-6.592-8.682-13.134-17.43-19.562-26.329-25.93-35.894-50.45-73.582-73.158-113.091zM897.1 778.055c-20.346-74.153-41.923-181.453-59.75-336.628-7.361-64.049-22.999-118.338-44.902-163.708-16.44-34.038-36.396-63.093-59.27-87.701-34.328-36.884-75.266-63.898-121.622-81.979-46.338-18.049-98.153-27.038-153.505-27.038-51.983-0.002-107.028 7.943-163.133 23.611-46.526 12.985-93.771 31.291-140.581 54.638 26.14 48.872 55.304 95.035 86.74 138.569 4.708 6.519 9.485 12.961 14.293 19.363 7.858-2.796 19.927-6.846 35.474-11.32 28.177-8.104 67.713-17.593 114.11-23.337 25.449-3.15 52.968-5.164 81.82-5.166 23.752 0 48.408 1.368 73.545 4.623 18.222 2.36 31.081 19.044 28.721 37.264-2.36 18.222-19.044 31.083-37.266 28.723-21.992-2.848-43.808-4.072-65.002-4.072-25.744 0-50.569 1.807-73.652 4.662-42.086 5.203-78.365 13.9-103.882 21.246-3.484 1.002-6.746 1.977-9.816 2.914 69.22 82.698 145.876 154.575 223.003 216.162 2.584-1.078 5.391-2.206 8.433-3.374 17.557-6.732 42.601-14.653 73.708-19.931 20.736-3.518 44.164-5.861 69.805-5.861 12.822 0 26.195 0.585 40.053 1.899 18.291 1.736 31.712 17.971 29.979 36.262-1.733 18.293-17.969 31.715-36.262 29.981-11.703-1.109-22.974-1.604-33.768-1.604-21.592 0-41.292 1.972-58.675 4.923-10.742 1.824-20.59 4.023-29.452 6.354 6.678 4.866 13.353 9.672 20.007 14.385 115.188 81.609 225.553 140.377 306.749 178.565-5.154-15.316-10.479-32.684-15.901-52.42z" />
<glyph unicode="&#xe944;" glyph-name="clock1" d="M916.844 198.639c-17.727 13.181-42.78 9.5-55.967-8.22-7.253-9.745-15.013-19.308-23.068-28.422-14.632-16.549-13.073-41.83 3.476-56.462 7.612-6.724 17.061-10.030 26.476-10.030 11.065 0 22.079 4.568 29.986 13.505 9.535 10.792 18.728 22.113 27.312 33.661 13.187 17.721 9.512 42.78-8.215 55.967zM983.677 386.23c-21.572 4.699-42.894-8.994-47.593-30.578-2.583-11.873-5.706-23.768-9.29-35.362-6.525-21.106 5.302-43.503 26.408-50.022 3.931-1.217 7.908-1.792 11.822-1.792 17.078 0 32.899 11.025 38.207 28.2 4.25 13.756 7.959 27.876 11.025 41.961 4.699 21.584-8.994 42.894-30.578 47.593zM724.224 70.531c-10.615-5.928-21.612-11.463-32.677-16.464-20.133-9.091-29.082-32.785-19.991-52.918 6.679-14.791 21.237-23.546 36.477-23.546 5.501 0 11.099 1.143 16.441 3.556 13.124 5.928 26.163 12.498 38.753 19.524 19.291 10.769 26.197 35.14 15.423 54.426-10.763 19.285-35.135 26.192-54.426 15.423zM471.949 768v-303.432l-146.678-146.678c-15.62-15.622-15.62-40.943 0-56.565 7.812-7.811 18.046-11.719 28.286-11.719 10.236 0 20.474 3.908 28.286 11.719l158.392 158.391c7.5 7.5 11.714 17.676 11.714 28.284v320c0 22.092-17.908 40-40 40s-40-17.907-40-40zM984.001 874c-22.096 0-39.999-17.908-39.999-40v-111.072c-93.104 146.016-255.698 237.072-432.003 237.072-136.76 0-265.334-53.258-362.040-149.96-96.702-96.706-149.96-225.28-149.96-362.040s53.258-265.335 149.96-362.041c96.706-96.7 225.28-149.959 362.040-149.959 0.338 0 0.664 0.040 1 0.051 0.336-0.011 0.662-0.051 1-0.051 14.416 0 28.974 0.609 43.274 1.803 22.014 1.843 38.364 21.185 36.527 43.201-1.849 22.010-21.163 38.372-43.203 36.517-12.088-1.007-24.4-1.525-36.598-1.525-0.338 0-0.664-0.040-1-0.046-0.336 0.006-0.662 0.046-1 0.046-238.206 0-432 193.798-432 432.003s193.794 432 432 432c153.515 0 294.713-81.826 371.871-212h-109.983c-22.096 0-40.004-17.908-40.004-40s17.909-40 40.004-40h122.112c24.36 0 47.15 6.846 66.554 18.706 1.246 0.712 2.446 1.478 3.59 2.304 34.816 22.902 57.856 62.296 57.856 106.99v118c0 22.092-17.909 40-39.999 40z" />
<glyph unicode="&#xe945;" glyph-name="pinterest1" horiz-adv-x="783" d="M416 960c-209.224 0-416-139.385-416-364.968 0-143.461 80.753-224.972 129.694-224.972 20.188 0 31.811 56.244 31.811 72.138 0 18.952-48.329 59.3-48.329 138.162 0 163.838 124.8 279.992 286.306 279.992 138.871 0 241.65-78.862 241.65-223.749 0-108.207-43.438-311.17-184.144-311.17-50.777 0-94.212 36.679-94.212 89.254 0 77.028 53.835 151.612 53.835 231.085 0 134.902-191.483 110.448-191.483-52.575 0-34.235 4.282-72.138 19.576-103.316-28.141-121.045-85.647-301.388-85.647-426.099 0-38.514 5.506-76.421 9.177-114.935 6.933-7.74 3.467-6.927 14.070-3.054 102.776 140.607 99.106 168.117 145.6 352.13 25.083-47.688 89.929-73.361 141.317-73.361 216.568 0 313.836 210.91 313.836 401.036 0 202.352-174.965 334.401-367.059 334.401z" />
<glyph unicode="&#xe946;" glyph-name="head-phone" d="M161.988 457.101c-1.414-1.413-1.988-3.034-1.988-4.413v-140.797c0-24.566 20.233-44.8 44.799-44.8h55.465c3.661 0 6.403 2.739 6.403 6.4v179.197c0 3.464-2.972 6.4-6.403 6.4h-93.864c-1.38 0-3-0.573-4.413-1.987zM96 452.687c0 38.582 31.823 70.4 70.401 70.4h93.864c39.237 0 70.403-32.049 70.403-70.4v-179.197c0-39.009-31.396-70.4-70.403-70.4h-55.465c-59.913 0-108.799 48.886-108.799 108.8v140.797zM512.015 800.425c-147.444 0-266.665-119.221-266.665-266.666v-43.092c0-17.674-14.327-32-32-32s-32 14.326-32 32v43.092c0 182.793 147.873 330.666 330.665 330.666 182.794 0 330.67-147.873 330.67-330.666v-42.668c0-17.672-14.331-32-32-32-17.674 0-32 14.328-32 32v42.668c0 147.446-119.224 266.666-266.67 266.666zM812.687 266.465c17.326-3.476 28.549-20.347 25.073-37.673-22.574-112.364-121.656-196.792-240.445-196.792h-42.665c-17.674 0-32 14.326-32 32s14.326 32 32 32h42.665c87.721 0 161.014 62.346 177.695 145.398 3.482 17.326 20.352 28.549 37.678 25.068zM759.291 457.101c-1.413-1.413-1.992-3.034-1.992-4.413v-179.197c0-3.466 2.975-6.4 6.405-6.4h53.33c25.846 0 46.935 21.084 46.935 46.935v138.662c0 3.464-2.97 6.4-6.4 6.4h-93.865c-1.382 0-3-0.573-4.413-1.987zM693.299 452.687c0 38.582 31.826 70.4 70.405 70.4h93.865c39.235 0 70.4-32.049 70.4-70.4v-138.662c0-61.194-49.741-110.935-110.935-110.935h-53.33c-39.24 0-70.405 32.051-70.405 70.4v179.197z" />
<glyph unicode="&#xe947;" glyph-name="categories" d="M887.45 405.33h-469.333c-25.6 0-42.666 17.065-42.666 42.665s17.066 42.668 42.666 42.668h469.333c25.6 0 42.665-17.066 42.665-42.668 0-25.6-21.33-42.665-42.665-42.665zM887.45 149.33h-469.333c-25.6 0-42.666 17.065-42.666 42.665s17.066 42.67 42.666 42.67h469.333c25.6 0 42.665-17.070 42.665-42.67s-21.33-42.665-42.665-42.665zM887.45 661.329h-469.333c-25.6 0-42.666 17.066-42.666 42.666s17.066 42.666 42.666 42.666h469.333c25.6 0 42.665-17.066 42.665-42.666s-21.33-42.666-42.665-42.666zM213.334 362.67c47.128 0 85.333 38.205 85.333 85.334s-38.205 85.334-85.333 85.334c-47.129 0-85.334-38.205-85.334-85.334s38.205-85.334 85.334-85.334zM213.334 618.671c47.128 0 85.333 38.205 85.333 85.333s-38.205 85.334-85.333 85.334c-47.129 0-85.334-38.205-85.334-85.334s38.205-85.333 85.334-85.333zM213.334 106.67c47.128 0 85.333 38.205 85.333 85.335s-38.205 85.33-85.333 85.33c-47.129 0-85.334-38.2-85.334-85.33s38.205-85.335 85.334-85.335z" />
<glyph unicode="&#xe948;" glyph-name="quote4" d="M208 80c-1.515 0.016-3.021 0.23-4.48 0.64-3.324 0.97-6.243 2.992-8.32 5.76s-3.2 6.138-3.2 9.6v310.96h-176c-4.243 0-8.313 1.686-11.314 4.685-3.001 3.002-4.686 7.072-4.686 11.315v377.040c0 4.244 1.686 8.313 4.686 11.314s7.070 4.686 11.314 4.686h400c4.243 0 8.314-1.686 11.315-4.686 2.998-3 4.685-7.070 4.685-11.314v-376.72c0-3.030-0.861-6-2.48-8.56l-208-327.28c-1.444-2.278-3.44-4.157-5.804-5.459-2.364-1.299-5.018-1.981-7.716-1.981zM32 439.28h176c4.244 0 8.313-1.686 11.314-4.685 3.001-3.002 4.686-7.072 4.686-11.315v-272l176 276.72v356h-368v-344.72zM800 80c-1.514 0.016-3.021 0.23-4.48 0.64-3.325 0.97-6.243 2.992-8.32 5.76s-3.2 6.138-3.2 9.6v310.96h-176c-4.243 0-8.314 1.686-11.315 4.685-2.998 3.002-4.685 7.072-4.685 11.315v377.040c0 4.244 1.686 8.313 4.685 11.314 3.002 3.001 7.072 4.686 11.315 4.686h400c4.243 0 8.314-1.686 11.315-4.686 2.998-3 4.685-7.070 4.685-11.314v-376.72c0-3.030-0.861-6-2.48-8.56l-208-327.28c-1.443-2.278-3.44-4.157-5.805-5.459-2.362-1.299-5.018-1.981-7.715-1.981zM624 439.28h176c4.243 0 8.314-1.686 11.315-4.685 2.998-3.002 4.685-7.072 4.685-11.315v-272l176 276.72v356h-368v-344.72z" />
<glyph unicode="&#xe949;" glyph-name="sun1" d="M511.994 949.758l96.051-269.926 258.662 122.88-122.88-258.663 269.926-96.051-269.926-96.051 122.88-258.662-258.662 122.88-96.051-269.926-96.051 269.926-258.662-122.88 122.88 258.662-269.926 96.051 269.926 96.051-122.88 258.663 258.662-122.88 96.051 269.926z" />
<glyph unicode="&#xe94a;" glyph-name="designs" d="M448 64h128c17.601 0 32 14.336 32 32s-14.399 32-32 32h-128c-17.601 0-32-14.336-32-32s14.399-32 32-32zM832 800v-704c0-42.433-16.798-83.137-46.88-113.135-29.92-30.001-70.719-46.865-113.12-46.865h-320c-42.401 0-83.2 16.864-113.121 46.865-30.080 29.998-46.879 70.702-46.879 113.135v704c0 42.432 16.799 83.136 46.879 113.136 29.921 30 70.72 46.864 113.121 46.864 95.2 0 224.8 0 320 0 42.401 0 83.2-16.864 113.12-46.864 30.081-30 46.88-70.704 46.88-113.136zM416 896h-64c-25.439 0-49.92-10.112-67.84-28.112-18.081-18.016-28.16-42.432-28.16-67.888v-704c0-25.456 10.079-49.871 28.16-67.889 17.92-17.998 42.401-28.111 67.84-28.111h320c25.439 0 49.92 10.113 67.84 28.111 18.081 18.018 28.16 42.433 28.16 67.889v704c0 25.456-10.079 49.872-28.16 67.888-17.92 18-42.401 28.112-67.84 28.112h-64c0-17.664-14.399-32-32-32h-128c-17.601 0-32 14.336-32 32z" />
<glyph unicode="&#xe94b;" glyph-name="fit" d="M821.441 514.562v141.439c0 13.322-2.623 26.512-7.721 38.819s-12.571 23.49-21.989 32.91c-9.421 9.42-20.604 16.892-32.909 21.989-12.308 5.098-25.5 7.722-38.822 7.722h-141.439c0.022 34.935-13.156 68.588-36.891 94.222s-56.276 41.356-91.109 44.018c-18.449 1.057-36.918-1.693-54.26-8.079-17.34-6.386-33.182-16.271-46.541-29.041-13.483-12.661-24.259-27.92-31.685-44.859-7.424-16.939-11.342-35.207-11.515-53.701v-2.56h-141.119c-26.903 0-52.705-10.687-71.729-29.711s-29.711-44.825-29.711-71.729v-173.439c0-8.487 3.371-16.628 9.373-22.628 6.001-6.003 14.14-9.372 22.627-9.372h28.8c18.895 0.473 37.297-6.064 51.656-18.356 14.359-12.29 23.658-29.462 26.104-48.204 0.685-10.35-0.844-20.726-4.486-30.44-3.642-9.711-9.313-18.534-16.634-25.88-13.489-13.507-31.791-21.104-50.88-21.121h-34.56c-8.487 0-16.626-3.372-22.627-9.372-6.001-6.003-9.373-14.141-9.373-22.628v-173.119c0-26.904 10.687-52.707 29.711-71.729 19.024-19.024 44.825-29.711 71.729-29.711h173.119c8.487 0 16.628 3.369 22.628 9.372 6.003 6 9.372 14.141 9.372 22.628v28.799c-0.393 18.924 6.215 37.33 18.559 51.68 12.342 14.351 29.552 23.64 48.323 26.080 10.303 0.722 20.643-0.79 30.308-4.437 9.667-3.645 18.43-9.335 25.693-16.684 6.744-6.636 12.088-14.558 15.716-23.298s5.466-18.117 5.403-27.58v-34.56c0-8.487 3.372-16.628 9.372-22.628 6.003-6.003 14.141-9.372 22.628-9.372h173.439c13.322 0 26.514 2.623 38.822 7.721 12.305 5.098 23.489 12.568 32.909 21.989 9.418 9.418 16.891 20.602 21.989 32.909s7.721 25.498 7.721 38.819v141.119h2.56c18.447 0.090 36.686 3.908 53.623 11.22 16.937 7.314 32.222 17.974 44.937 31.339 12.89 13.285 22.877 29.108 29.323 46.463 6.444 17.354 9.209 35.857 8.116 54.338-2.511 35.004-18.213 67.747-43.93 91.624-25.719 23.879-59.538 37.105-94.63 37.018zM876.159 329.282c-6.646-7.192-14.714-12.927-23.693-16.837s-18.671-5.915-28.465-5.883h-34.56c-8.487 0-16.628-3.372-22.628-9.372-6-6.003-9.372-14.141-9.372-22.628v-173.119c0-9.93-3.945-19.454-10.967-26.475s-16.545-10.964-26.475-10.964h-141.439v2.56c0.054 18.712-3.764 37.235-11.215 54.401-7.448 17.167-18.369 32.605-32.073 45.349-13.705 12.741-29.896 22.511-47.56 28.696-17.662 6.183-36.413 8.645-55.072 7.234-34.406-3.33-66.353-19.315-89.646-44.856-23.294-25.539-36.276-58.817-36.435-93.384h-141.119c-9.93 0-19.453 3.942-26.474 10.964s-10.966 16.545-10.966 26.475v141.119h2.56c18.699-0.005 37.199 3.845 54.343 11.31s32.564 18.388 45.297 32.080c12.733 13.695 22.506 29.867 28.706 47.509s8.697 36.372 7.334 55.020c-3.26 34.433-19.222 66.421-44.779 89.729s-58.873 36.267-93.461 36.352v141.439c0 9.93 3.945 19.454 10.966 26.475 7.021 7.019 16.544 10.964 26.474 10.964h173.119c8.487 0 16.628 3.372 22.628 9.372 6.003 6.003 9.372 14.142 9.372 22.629v34.56c-0.029 9.793 1.975 19.487 5.886 28.465s9.643 17.047 16.835 23.694c7.214 6.967 15.818 12.334 25.246 15.753s19.471 4.811 29.474 4.087c19.003-2.081 36.53-11.234 49.096-25.639 12.568-14.405 19.259-33.011 18.744-52.121v-28.8c0-8.487 3.372-16.626 9.372-22.629 6.003-6 14.141-9.372 22.628-9.372h172.159c9.906-0.083 19.38-4.055 26.383-11.057 7.005-7.005 10.974-16.479 11.059-26.383v-173.439c0-8.487 3.372-16.628 9.372-22.628 6-6.003 14.141-9.372 22.628-9.372h28.799c18.915 0.546 37.354-5.966 51.729-18.271s23.654-29.518 26.032-48.289c0.724-10.004-0.668-20.048-4.086-29.477-3.421-9.428-8.787-18.030-15.755-25.244z" />
<glyph unicode="&#xe94c;" glyph-name="protection" d="M463.999 944c-35.518 0-70.719-6.288-104.158-18.56-51.841-19.136-137.601-50.72-196.161-72.272-50.24-18.544-83.68-66.48-83.68-120.112v-313.489c0-189.342 114.562-359.887 289.762-431.582 47.521-19.441 82.078-33.602 82.078-33.602 16.321-6.688 35.043 1.153 41.762 17.506 6.719 16.335-1.122 35.040-17.442 41.728 0 0-34.718 14.16-82.237 33.599-151.201 61.857-249.923 208.991-249.923 372.351v313.489c0 26.816 16.802 50.784 41.922 60.064 58.4 21.536 144.157 53.12 196.157 72.256 26.239 9.68 53.921 14.624 81.92 14.624 28.002 0 55.684-4.944 81.922-14.624 52-19.136 137.757-50.72 196.157-72.256 25.12-9.28 41.921-33.248 41.921-60.064v-237.055c0-17.666 14.402-32.002 32.002-32.002 17.598 0 31.998 14.336 31.998 32.002 0 91.294 0 179.407 0 237.055 0 53.632-33.438 101.568-83.678 120.112-58.561 21.552-144.321 53.136-196.162 72.272-33.438 12.272-68.64 18.56-104.16 18.56zM688.001 463.999c-141.28 0-256-114.703-256-256 0-141.295 114.72-256 256-256 141.278 0 256 114.705 256 256 0 141.297-114.722 256-256 256zM688.001 399.999c105.918 0 192-86.031 192-192 0-105.967-86.082-192-192-192-105.921 0-192 86.033-192 192 0 105.969 86.079 192 192 192zM569.442 169.377c0 0 18.559-18.593 35.679-35.728 28.16-28.114 73.599-28.114 101.759 0 37.759 37.695 99.84 99.728 99.84 99.728 12.478 12.478 12.478 32.751 0 45.246-12.481 12.498-32.797 12.498-45.278 0 0 0-62.079-62.015-99.84-99.711-3.040-3.135-8.163-3.135-11.203 0l-35.84 35.711c-12.481 12.498-32.636 12.498-45.117 0-12.639-12.478-12.639-32.768 0-45.246z" />
<glyph unicode="&#xe94d;" glyph-name="quality" d="M511.995 760.987c-172.583 0-312.988-140.399-312.988-312.987s140.405-312.988 312.988-312.988c172.583 0 312.988 140.405 312.988 312.988 0 172.581-140.405 312.987-312.988 312.987zM511.995 199.012c-49.245 0-97.385 14.602-138.33 41.962-40.945 27.358-72.86 66.245-91.704 111.743-18.846 45.495-23.776 95.559-14.17 143.857 9.609 48.299 33.321 92.665 68.142 127.486 34.823 34.823 79.187 58.536 127.488 68.142 48.299 9.609 98.36 4.679 143.857-14.168s84.382-50.759 111.743-91.704c27.36-40.945 41.962-89.086 41.962-138.33-0.076-66.014-26.331-129.302-73.009-175.979-46.68-46.677-109.965-72.936-175.979-73.009zM999.153 337.254l-32.758 106.442c-0.99 2.782-0.99 5.82 0 8.602l32.761 106.442c4.879 15.46 4.808 32.059-0.202 47.475-5.010 15.419-14.709 28.887-27.743 38.527l-89.071 66.857c-2.438 1.668-4.223 4.128-5.059 6.96l-36.059 105.38c-5.14 15.376-14.953 28.763-28.067 38.292-13.117 9.529-28.882 14.724-45.093 14.86l-111.362 1.738c-2.95-0.082-5.839 0.857-8.177 2.658l-91.112 64.050c-13.195 9.42-29.004 14.483-45.217 14.483s-32.020-5.064-45.214-14.483l-91.107-64.050c-2.341-1.801-5.23-2.74-8.182-2.658l-111.36-1.738c-16.212-0.136-31.976-5.331-45.092-14.86s-22.929-22.916-28.068-38.292l-36.062-105.374c-0.835-2.831-2.621-5.288-5.056-6.959l-89.070-66.857c-13.035-9.638-22.734-23.108-27.744-38.524-5.010-15.419-5.080-32.017-0.2-47.475l32.758-106.45c0.988-2.782 0.988-5.817 0-8.599l-32.76-106.447c-4.879-15.458-4.809-32.056 0.2-47.475 5.010-15.416 14.709-28.887 27.744-38.524l89.072-66.855c2.436-1.67 4.221-4.128 5.056-6.958l36.062-105.382c5.14-15.377 14.952-28.765 28.068-38.293s28.88-14.724 45.092-14.86l111.355-1.738c2.953 0.083 5.842-0.856 8.182-2.655l91.114-64.054c13.195-9.418 29.004-14.48 45.214-14.48s32.020 5.061 45.214 14.48l91.109 64.051c2.341 1.802 5.23 2.74 8.182 2.658l111.36 1.738c16.211 0.137 31.976 5.332 45.093 14.86 13.115 9.531 22.928 22.918 28.065 38.293l36.062 105.372c0.836 2.833 2.621 5.291 5.057 6.958l89.071 66.86c13.036 9.638 22.735 23.106 27.746 38.524s5.081 32.017 0.2 47.479zM932.796 302.434l-89.071-66.857c-12.717-9.357-22.218-22.433-27.185-37.42l-36.064-105.372c-0.885-2.904-2.689-5.437-5.144-7.222s-5.422-2.718-8.455-2.662l-111.365-1.736c-15.787-0.098-31.156-5.093-43.983-14.295l-91.124-64.051c-2.421-1.826-5.374-2.816-8.409-2.816s-5.988 0.99-8.409 2.816l-91.114 64.056c-12.829 9.201-28.197 14.195-43.986 14.292l-111.36 1.736c-3.033-0.056-6 0.878-8.455 2.662s-4.259 4.318-5.144 7.222l-36.062 105.372c-4.969 14.987-14.469 28.062-27.188 37.42l-89.082 66.855c-2.489 1.738-4.343 4.24-5.281 7.129-0.938 2.887-0.91 6 0.081 8.87l32.76 106.445c4.788 15.045 4.788 31.208 0 46.253l-32.76 106.442c-0.991 2.87-1.020 5.986-0.081 8.872s2.793 5.391 5.281 7.129l89.072 66.857c12.717 9.357 22.215 22.433 27.184 37.42l36.064 105.372c0.885 2.902 2.691 5.437 5.144 7.22 2.455 1.784 5.422 2.719 8.455 2.664l111.358 1.738c15.792 0.091 31.166 5.086 44 14.292l91.124 64.042c2.421 1.829 5.374 2.818 8.407 2.818 3.035 0 5.988-0.989 8.409-2.818l91.104-64.050c12.829-9.204 28.199-14.198 43.988-14.292l111.36-1.738c3.033 0.055 6-0.88 8.455-2.664 2.453-1.783 4.259-4.318 5.144-7.22l36.062-105.369c4.969-14.989 14.468-28.065 27.185-37.422l89.086-66.857c2.489-1.738 4.342-4.242 5.281-7.129s0.909-6.003-0.080-8.872l-32.761-106.445c-4.791-15.045-4.791-31.205 0-46.251l32.761-106.442c0.99-2.87 1.017-5.983 0.078-8.867-0.939-2.887-2.792-5.388-5.278-7.127zM685.595 561.169c2.84-3.099 5.042-6.724 6.478-10.674 1.438-3.947 2.085-8.141 1.902-12.339s-1.192-8.319-2.967-12.13c-1.775-3.808-4.284-7.229-7.383-10.069l-199.77-183.096c-5.903-5.405-13.617-8.402-21.619-8.399-0.607 0-1.214 0.017-1.821 0.051-4.267 0.244-8.443 1.339-12.281 3.223-3.838 1.882-7.258 4.515-10.062 7.743l-100.23 115.4c-2.767 3.17-4.886 6.856-6.227 10.847-1.343 3.989-1.885 8.207-1.595 12.405 0.29 4.201 1.404 8.302 3.282 12.071 1.877 3.767 4.481 7.127 7.658 9.889 3.179 2.76 6.871 4.866 10.864 6.198s8.212 1.86 12.41 1.56c4.201-0.302 8.299-1.429 12.061-3.318 3.762-1.887 7.117-4.501 9.867-7.685l78.677-90.602 175.543 160.89c6.256 5.734 14.533 8.75 23.013 8.38 8.48-0.368 16.464-4.089 22.199-10.345z" />
<glyph unicode="&#xe94e;" glyph-name="arr-right3" d="M512 960c-282.312 0-512-229.688-512-512s229.688-512 512-512c282.312 0 512 229.688 512 512s-229.688 512-512 512zM512 0c-247.032 0-448 200.97-448 448 0 247.032 200.968 448 448 448 247.030 0 448-200.968 448-448 0-247.030-200.97-448-448-448zM726.625 470.624c12.503-12.504 12.503-32.751 0-45.249l-160-160c-6.252-6.246-14.444-9.375-22.625-9.375s-16.374 3.128-22.625 9.375c-12.503 12.503-12.503 32.753 0 45.251l105.38 105.375h-306.755c-17.672 0-32 14.31-32 32 0 17.688 14.328 32 32 32h306.755l-105.38 105.376c-12.503 12.504-12.503 32.752 0 45.247s32.753 12.504 45.251 0l160-160z" />
<glyph unicode="&#xe94f;" glyph-name="quote3" d="M0 374.854h219.428l-146.287-292.57h219.428l146.288 292.57v438.857h-438.858v-438.857zM585.139 813.711v-438.857h219.43l-146.288-292.57h219.43l146.285 292.57v438.857h-438.858z" />
<glyph unicode="&#xe950;" glyph-name="quote" horiz-adv-x="1287" d="M758.742 960h461.845c36.378 0 65.977-28.269 65.977-63.015v-409.6c0-34.748-29.599-63.015-65.977-63.015h-273.363c30.917-144.914 166.455-252.062 322.846-252.062 9.108 0 16.494-7.052 16.494-15.754v-204.8c0-8.701-7.386-15.754-16.494-15.754-318.325 0-577.305 247.351-577.305 551.385v409.6c0 34.747 29.599 63.015 65.977 63.015zM725.753 487.385c0-281.395 235.281-511.288 527.822-519.643v173.416c-81.878 3.555-160.154 33.501-221.993 85.234-65.292 54.619-108.006 129.73-120.281 211.495-0.68 4.524 0.73 9.106 3.865 12.556 3.132 3.453 7.683 5.435 12.461 5.435h292.959c18.19 0 32.989 14.134 32.989 31.508v409.6c0 17.373-14.798 31.508-32.989 31.508h-461.845c-18.188 0-32.989-14.134-32.989-31.508v-409.6zM65.978 960h461.844c36.378 0 65.977-28.269 65.977-63.015v-409.6c0-34.748-29.599-63.015-65.977-63.015h-273.376c30.916-144.914 166.457-252.062 322.859-252.062 9.111 0 16.494-7.052 16.494-15.754v-204.8c0-8.701-7.383-15.754-16.494-15.754-318.326 0-577.305 247.351-577.305 551.385v409.6c0 34.747 29.594 63.015 65.978 63.015zM32.989 487.385c0-281.395 235.281-511.288 527.822-519.643v173.416c-81.878 3.552-160.159 33.501-221.998 85.234-65.297 54.619-108.013 129.73-120.288 211.495-0.68 4.524 0.732 9.106 3.863 12.556 3.134 3.453 7.68 5.435 12.463 5.435h292.971c18.188 0 32.989 14.134 32.989 31.508v409.6c0 17.373-14.801 31.508-32.989 31.508h-461.844c-18.19 0-32.989-14.134-32.989-31.508v-409.6z" />
<glyph unicode="&#xe951;" glyph-name="quote2" d="M200.532 204.8c-42.667 46.933-68.267 98.133-68.267 183.467 0 149.333 106.668 281.6 256.001 349.867l38.4-55.467c-140.8-76.8-170.667-174.933-179.2-238.933 21.333 12.8 51.2 17.067 81.067 12.8 76.8-8.533 136.533-68.267 136.533-149.333 0-38.4-17.067-76.8-42.667-106.667-29.867-29.867-64-42.667-106.667-42.667-46.933 0-89.6 21.333-115.201 46.933zM627.2 204.8c-42.667 46.933-68.267 98.133-68.267 183.467 0 149.333 106.667 281.6 256 349.867l38.4-55.467c-140.8-76.8-170.667-174.933-179.2-238.933 21.333 12.8 51.2 17.067 81.067 12.8 76.8-8.533 136.531-68.267 136.531-149.333 0-38.4-17.065-76.8-42.667-106.667-25.6-29.867-64-42.667-106.667-42.667-46.933 0-89.598 21.333-115.198 46.933z" />
<glyph unicode="&#xe952;" glyph-name="flash-star" d="M500.021 925.384c1.595 5.364 6.539 9.066 12.148 9.066 5.606 0 10.552-3.702 12.145-9.066 0 0 22.231-74.52 46.060-154.449 37.97-127.341 137.585-226.953 264.924-264.922 79.928-23.828 154.45-46.060 154.45-46.060 5.361-1.596 9.062-6.539 9.062-12.148 0-5.606-3.702-10.547-9.062-12.145 0 0-74.522-22.231-154.45-46.060-127.34-37.97-226.954-137.585-264.924-264.924-23.828-79.928-46.060-154.45-46.060-154.45-1.592-5.361-6.538-9.062-12.145-9.062-5.608 0-10.552 3.702-12.148 9.062 0 0-22.232 74.522-46.060 154.45-37.969 127.34-137.581 226.954-264.922 264.924-79.929 23.828-154.449 46.060-154.449 46.060-5.364 1.597-9.066 6.538-9.066 12.145 0 5.609 3.701 10.552 9.066 12.148 0 0 74.52 22.232 154.449 46.060 127.341 37.969 226.953 137.581 264.922 264.922 23.828 79.929 46.060 154.449 46.060 154.449z" />
<glyph unicode="&#xe953;" glyph-name="dot" d="M1021.6 448c0-226.216-183.384-409.6-409.6-409.6s-409.6 183.384-409.6 409.6c0 226.216 183.384 409.6 409.6 409.6s409.6-183.384 409.6-409.6z" />
<glyph unicode="&#xe954;" glyph-name="fb" horiz-adv-x="614" d="M380.591 684.844v-121.573h142.13l-22.506-163.767h-119.624v-377.311c-23.984-3.519-48.522-5.358-73.431-5.358-28.751 0-56.985 2.425-84.479 7.117v375.552h-131.081v163.767h131.081v148.75c0 92.285 70.695 167.129 157.947 167.129v-0.078c0.258 0 0.48 0.078 0.739 0.078h141.391v-141.633h-92.388c-27.458 0-49.742-23.58-49.742-52.634l-0.037-0.039z" />
<glyph unicode="&#xe955;" glyph-name="verifi" d="M460.395 312.751c-8.534 0-16.64 3.414-22.614 9.387l-103.251 103.253c-12.373 12.374-12.373 32.854 0 45.227s32.854 12.373 45.227 0l80.638-80.64 183.466 183.465c12.374 12.374 32.854 12.374 45.226 0s12.374-32.853 0-45.225l-206.080-206.080c-5.973-5.974-14.080-9.387-22.613-9.387zM512.026-10.664c-26.88 0-53.76 8.96-74.666 26.88l-67.415 58.024c-6.826 5.976-23.894 11.952-32.854 11.952h-73.386c-63.146 0-114.346 51.2-114.346 114.344v72.961c0 8.96-5.974 25.6-11.947 32.426l-57.6 67.84c-34.986 41.386-34.986 106.666 0 148.054l57.6 67.84c5.974 6.826 11.947 23.466 11.947 32.426v73.386c0 63.147 51.2 114.347 114.346 114.347h73.814c8.96 0 26.026 6.4 32.853 11.946l67.415 58.026c41.814 35.84 107.094 35.84 148.906 0l67.414-58.026c6.826-5.974 23.894-11.946 32.854-11.946h72.534c63.144 0 114.344-51.2 114.344-114.347v-72.533c0-8.96 6.4-26.027 12.376-32.854l58.024-67.414c35.84-41.813 35.84-107.093 0-148.906l-58.024-67.414c-5.976-6.826-12.376-23.893-12.376-32.853v-72.537c0-63.144-51.2-114.344-114.344-114.344h-72.534c-8.96 0-26.027-6.4-32.854-11.944l-67.414-58.032c-20.906-18.344-47.786-27.304-74.666-27.304zM263.705 745.817c-27.734 0-50.346-22.614-50.346-50.347v-72.96c0-24.32-11.52-55.466-27.307-73.813l-57.6-67.84c-14.933-17.494-14.933-47.787 0-65.28l57.6-67.84c15.787-18.774 27.307-49.494 27.307-73.814v-72.963c0-27.728 22.613-50.344 50.346-50.344h73.814c24.746 0 55.893-11.52 74.666-27.736l67.415-58.024c17.494-14.936 48.213-14.936 65.706 0l67.414 58.024c18.773 15.792 49.92 27.736 74.666 27.736h72.531c27.736 0 50.352 22.616 50.352 50.344v72.537c0 24.746 11.52 55.893 27.728 74.666l58.032 67.414c14.928 17.493 14.928 48.213 0 65.706l-58.032 67.414c-16.208 18.773-27.728 49.92-27.728 74.666v72.106c0 27.734-22.616 50.347-50.352 50.347h-72.531c-24.746 0-55.894 11.52-74.666 27.733l-67.414 58.027c-17.494 14.933-48.213 14.933-65.706 0l-67.415-58.454c-18.774-15.786-50.346-27.306-74.666-27.306h-73.814z" />
<glyph unicode="&#xe956;" glyph-name="compare" d="M1011.453 734.207l-128 128c-8.042 7.771-18.821 12.072-30.010 11.975-11.182-0.098-21.886-4.585-29.798-12.496s-12.397-18.612-12.493-29.799c-0.096-11.187 4.205-21.965 11.974-30.012l55.214-55.211h-153.006c-79.184-0.090-155.098-31.586-211.089-87.577s-87.487-131.906-87.577-211.089c-0.068-56.559-22.566-110.782-62.559-150.775-39.993-39.995-94.216-62.489-150.774-62.557h-170.667c-11.316 0-22.168-4.499-30.17-12.5s-12.497-18.855-12.497-30.167c0-11.319 4.495-22.173 12.497-30.174s18.854-12.493 30.17-12.493h170.667c79.184 0.089 155.098 31.587 211.089 87.572 55.992 55.994 87.487 131.909 87.577 211.093 0.068 56.558 22.566 110.781 62.559 150.774s94.216 62.491 150.774 62.558h153.006l-55.173-55.168c-7.994-8.001-12.493-18.852-12.493-30.165s4.499-22.165 12.493-30.166c8.069-7.876 18.896-12.285 30.167-12.285s22.098 4.409 30.167 12.285l128 128c5.898 6.012 9.912 13.613 11.558 21.873s0.847 16.821-2.301 24.633c-2.157 5.19-5.318 9.902-9.305 13.867zM42.667 661.333h170.667c42.26 0.117 83.575-12.491 118.571-36.181 4.636-3.247 9.872-5.541 15.403-6.745s11.246-1.296 16.813-0.269c5.566 1.026 10.874 3.15 15.611 6.247s8.812 7.107 11.985 11.794c3.173 4.687 5.382 9.959 6.498 15.509s1.115 11.265 0 16.815c-1.115 5.55-3.323 10.822-6.496 15.51s-7.247 8.697-11.984 11.795c-49.104 33.27-107.086 50.992-166.4 50.859h-170.667c-11.316 0-22.168-4.495-30.17-12.497s-12.497-18.854-12.497-30.17c0-11.316 4.495-22.168 12.497-30.17s18.854-12.497 30.17-12.497zM1011.439 222.208l-128 127.999c-8.049 7.771-18.821 12.072-30.010 11.975s-21.886-4.585-29.798-12.496c-7.912-7.911-12.397-18.612-12.5-29.799-0.096-11.187 4.205-21.965 11.981-30.012l55.207-55.209h-152.999c-42.264-0.116-83.578 12.486-118.573 36.181-4.637 3.243-9.873 5.536-15.403 6.743-5.531 1.204-11.246 1.296-16.813 0.27s-10.874-3.148-15.611-6.248c-4.738-3.099-8.812-7.107-11.985-11.796-3.173-4.683-5.381-9.96-6.498-15.503-1.115-5.55-1.115-11.271 0-16.821s3.323-10.82 6.496-15.503c3.173-4.69 7.247-8.697 11.984-11.796 49.104-33.273 107.086-50.995 166.403-50.859h152.999l-55.166-55.166c-4.076-3.939-7.325-8.649-9.564-13.851-2.232-5.209-3.413-10.807-3.461-16.473s1.031-11.284 3.174-16.527c2.144-5.243 5.318-10.008 9.318-14.008 4.007-4.007 8.772-7.175 14.015-9.325 5.243-2.144 10.861-3.222 16.527-3.174s11.264 1.229 16.473 3.461c5.202 2.239 9.912 5.489 13.844 9.564l128 128c5.905 6.007 9.926 13.612 11.571 21.873s0.84 16.821-2.307 24.631c-2.157 5.195-5.318 9.905-9.305 13.872z" />
<glyph unicode="&#xe957;" glyph-name="heart2" d="M1023.863 614.184c-2.376 77.6-35.799 152.18-94.119 210s-132.922 90.7-210.541 92.94h-0.157c-78.221 2-151.562-28.3-207.062-84.24-55.5 56.001-128.86 86.22-207.22 84.22-77.62-2.22-152.4-35.22-210.56-92.9s-91.72-132.42-94-210v-0.2c-3.84-154.2 99.24-266.12 130.92-296.739l0.24-0.221 0.84-0.859c108.58-106.981 210.92-209.64 304.1-305.179 9.797-10.185 21.55-18.289 34.554-23.825s26.993-8.39 41.126-8.39c14.134 0 28.122 2.854 41.126 8.39s24.757 13.64 34.555 23.825c93.18 95.539 195.518 198.199 304.198 305.139l0.86 0.86 0.239 0.22c31.683 30.62 134.765 142.54 131.024 296.78l-0.123 0.18zM120.805 341.044c0 1.22 0 2.5 0 3.8-0.080-1.28-0.060-2.54 0-3.8zM120.805 341.044c0.225-3.82 1.027-7.582 2.38-11.16-1.344 3.545-2.139 7.274-2.36 11.060l-0.020 0.1zM903.148 341.184c0 1.26 0 2.54 0 3.8 0.096-1.4 0.075-2.66 0.014-3.9l-0.014 0.1zM900.724 329.824c1.372 3.596 2.178 7.38 2.403 11.22-0.198-3.875-0.997-7.695-2.383-11.32l-0.020 0.1zM840.103 371.964c-0.457-0.46-1.079-1.040-1.782-1.78-108.954-107.302-211.597-210.18-305.077-306.177-2.715-2.929-6.004-5.263-9.662-6.861s-7.606-2.417-11.598-2.417c-3.991 0-7.939 0.819-11.598 2.417s-6.947 3.932-9.662 6.861c-93.48 95.997-196.12 198.874-305.1 305.997-0.7 0.739-1.32 1.32-1.8 1.78-26.040 25.26-110.78 116.96-107.84 240.22 1.8 58 27.26 114.239 71.68 158.28 43.76 43.42 101.801 69.28 159.080 70.94 68.44 1.74 132-30.76 174.44-89.12 3.527-4.866 8.157-8.826 13.511-11.555s11.279-4.15 17.289-4.145c5.988-0.003 11.891 1.408 17.23 4.119s9.961 6.645 13.49 11.482c42.48 58.34 106 90.84 174.362 89.12 57.419-1.701 115.418-27.54 159.157-70.94 44.421-44.001 69.885-100.18 71.762-158.18 2.942-123.24-81.804-214.96-107.861-240.14l-0.020 0.1z" />
<glyph unicode="&#xe958;" glyph-name="view" d="M1018.133 465.163c-85.63 180.282-280.353 342.836-508.133 342.836-256.297 0-440.524-200.492-508.133-342.836-5.156-10.859-5.156-23.468 0-34.328 85.633-180.281 280.352-342.838 508.133-342.838 256.295 0 440.525 200.499 508.133 342.838 5.156 10.86 5.156 23.469 0 34.328zM510 168.002c-184.281 0-337.070 121.44-426.695 279.997 89.25 157.907 241.945 280.001 426.695 280.001 184.266 0 337.071-121.43 426.695-280.001-89.251-157.9-241.947-279.997-426.695-279.997zM510 648c-110.281 0-200-89.719-200-200 0-110.278 89.719-199.999 200-199.999 110.279 0 199.999 89.72 199.999 199.999 0 110.282-89.72 200-199.999 200zM510 327.999c-66.164 0-120 53.836-120 120 0 66.172 53.836 120 120 120 66.172 0 120.001-53.828 120.001-120 0-66.164-53.829-120-120.001-120z" />
</font>
</defs>
</svg>
